<svg width="63" height="24" viewBox="0 0 63 24" xmlns="http://www.w3.org/2000/svg" xmlns:xlink="http://www.w3.org/1999/xlink" xmlns:figma="http://www.figma.com/figma/ns"><title>Group</title><desc>Created using Figma</desc><g style="mix-blend-mode:normal" figma:type="frame"><g style="mix-blend-mode:normal" figma:type="vector" transform="translate(103 233)"><use xlink:href="#a" transform="translate(-77.038 -232.172)" fill="#9B51E0" style="mix-blend-mode:normal"/><use xlink:href="#b" transform="translate(-77.038 -232.172)" fill="#9B51E0" style="mix-blend-mode:normal"/><use xlink:href="#c" transform="translate(-77.038 -232.172)" fill="#9B51E0" style="mix-blend-mode:normal"/><use xlink:href="#d" transform="translate(-77.038 -232.172)" fill="#9B51E0" style="mix-blend-mode:normal"/><use xlink:href="#e" transform="translate(-77.038 -232.172)" fill="#9B51E0" style="mix-blend-mode:normal"/><use xlink:href="#f" transform="translate(-77.038 -232.172)" fill="#9B51E0" style="mix-blend-mode:normal"/><use xlink:href="#g" transform="translate(-77.038 -232.172)" fill="#9B51E0" style="mix-blend-mode:normal"/><use xlink:href="#h" transform="translate(-77.038 -232.172)" fill="#9B51E0" style="mix-blend-mode:normal"/><use xlink:href="#i" transform="translate(-77.038 -232.172)" fill="#9B51E0" style="mix-blend-mode:normal"/><mask id="j"><path fill="#fff" transform="translate(-77.038 -232.172)" d="M-1-1h38v25H-1z"/><use xlink:href="#a" transform="translate(-77.038 -232.172)"/><use xlink:href="#b" transform="translate(-77.038 -232.172)"/><use xlink:href="#c" transform="translate(-77.038 -232.172)"/><use xlink:href="#d" transform="translate(-77.038 -232.172)"/><use xlink:href="#e" transform="translate(-77.038 -232.172)"/><use xlink:href="#f" transform="translate(-77.038 -232.172)"/><use xlink:href="#g" transform="translate(-77.038 -232.172)"/><use xlink:href="#h" transform="translate(-77.038 -232.172)"/><use xlink:href="#i" transform="translate(-77.038 -232.172)"/></mask><use xlink:href="#k" transform="translate(-77.038 -232.172)" fill="#9B51E0" style="mix-blend-mode:normal" mask="url(#j)"/></g><use xlink:href="#l" fill="#A3E4BE" style="mix-blend-mode:normal" figma:type="vector"/></g><defs><path id="a" d="M0 3.414c0-.48.074-.927.221-1.34C.37 1.65.574 1.286.836.98c.27-.307.59-.547.959-.72C2.172.087 2.582 0 3.025 0c.368 0 .7.066.995.199.304.124.566.281.787.471V.15h1.008V5.04c0 .314.074.521.222.62a.982.982 0 0 0 .504.137l-.234.87c-.787 0-1.262-.324-1.426-.97a3.72 3.72 0 0 1-.344.398 2.223 2.223 0 0 1-.984.571 2.48 2.48 0 0 1-.676.087c-.402 0-.779-.079-1.131-.236a2.771 2.771 0 0 1-.91-.67 3.426 3.426 0 0 1-.615-1.043A4.12 4.12 0 0 1 0 3.414zM3.123 5.76c.311 0 .606-.074.885-.223.279-.15.512-.344.7-.584V1.49a2.816 2.816 0 0 0-.737-.373 2.341 2.341 0 0 0-.836-.149 1.88 1.88 0 0 0-.811.174 1.863 1.863 0 0 0-.64.497c-.172.207-.307.459-.405.757a3.113 3.113 0 0 0-.148.98c0 .348.05.67.148.969.098.29.237.542.418.757.18.207.389.368.627.484.246.116.512.174.799.174z"/><path id="b" d="M11.169 0c.369 0 .696.062.983.186.295.124.55.277.763.46V.149h1.008v6.306c0 .538-.07.997-.21 1.378-.139.38-.34.691-.602.931-.254.248-.561.43-.922.546-.36.116-.762.174-1.205.174-.385 0-.754-.045-1.106-.136a3.163 3.163 0 0 1-.947-.41l.406-.968c.197.157.426.285.688.384.263.108.582.162.96.162.581 0 1.036-.153 1.364-.46.336-.306.504-.802.504-1.49v-.794c-.164.199-.402.39-.713.571-.303.174-.668.261-1.094.261-.36 0-.713-.07-1.058-.21a2.782 2.782 0 0 1-.91-.634 3.348 3.348 0 0 1-.639-1.018 3.859 3.859 0 0 1-.233-1.39c0-.48.078-.923.233-1.329A3.42 3.42 0 0 1 9.066.956c.27-.298.586-.53.947-.695.36-.174.746-.261 1.156-.261zm.123 5.611c.328 0 .623-.074.885-.223.262-.15.475-.323.64-.522V1.49a3.736 3.736 0 0 0-.652-.36 2.2 2.2 0 0 0-.886-.162c-.254 0-.5.054-.737.162-.23.099-.435.248-.615.447a2.21 2.21 0 0 0-.43.732c-.107.281-.16.608-.16.98 0 .357.053.68.16.969.106.281.25.525.43.732.18.199.385.352.615.46.237.107.487.161.75.161z"/><path id="c" d="M21.311 3.377a2.64 2.64 0 0 0-.16-.92 2.217 2.217 0 0 0-.43-.756 1.967 1.967 0 0 0-.651-.51 1.684 1.684 0 0 0-.812-.198c-.647 0-1.151.215-1.512.646-.36.43-.541 1.001-.541 1.713 0 .322.05.633.147.93.107.29.25.547.43.77.19.216.407.39.652.522.255.124.529.186.824.186.32 0 .607-.058.86-.174a1.78 1.78 0 0 0 .64-.484c.18-.215.316-.468.406-.757a3 3 0 0 0 .147-.968zm-5.237 0c0-.522.082-.99.246-1.403.164-.422.385-.778.664-1.068.286-.29.622-.513 1.008-.67A3.38 3.38 0 0 1 19.258 0c.443 0 .857.079 1.242.236.393.157.733.38 1.02.67a3.1 3.1 0 0 1 .677 1.055c.163.414.245.878.245 1.39 0 .514-.082.981-.245 1.403-.156.414-.377.77-.664 1.068a3.03 3.03 0 0 1-1.02.695 3.287 3.287 0 0 1-1.255.236c-.459 0-.885-.083-1.278-.248a3.063 3.063 0 0 1-1.009-.695 3.349 3.349 0 0 1-.664-1.068 3.849 3.849 0 0 1-.233-1.365z"/><path id="d" d="M28.118 1.229c-.155-.066-.34-.1-.553-.1-.23 0-.455.05-.676.15-.213.099-.406.248-.578.447a2.42 2.42 0 0 0-.406.77c-.098.305-.147.67-.147 1.092v3.016H24.65V.15h1.07v1.403c.074-.199.172-.393.295-.584.123-.19.266-.356.43-.496a2.07 2.07 0 0 1 .59-.335c.222-.091.468-.137.738-.137.123 0 .242.008.357.025.123.008.23.025.32.05l-.333 1.154z"/><path id="e" d="M29.497 3.414c0-.48.074-.927.221-1.34.148-.423.353-.787.615-1.093.27-.307.59-.547.96-.72A2.9 2.9 0 0 1 32.521 0c.368 0 .7.066.995.199.304.124.566.281.787.471V.15h1.008V5.04c0 .314.074.521.222.62a.982.982 0 0 0 .504.137l-.234.87c-.787 0-1.262-.324-1.426-.97a3.716 3.716 0 0 1-.344.398 2.225 2.225 0 0 1-.984.571 2.48 2.48 0 0 1-.676.087c-.402 0-.779-.079-1.131-.236a2.772 2.772 0 0 1-.91-.67 3.425 3.425 0 0 1-.615-1.043 4.118 4.118 0 0 1-.22-1.39zM32.62 5.76c.311 0 .606-.074.885-.223.279-.15.512-.344.7-.584V1.49a2.815 2.815 0 0 0-.737-.373 2.34 2.34 0 0 0-.836-.149 1.88 1.88 0 0 0-.811.174 1.864 1.864 0 0 0-.64.497c-.172.207-.307.459-.405.757a3.115 3.115 0 0 0-.148.98c0 .348.05.67.148.969.098.29.237.542.418.757.18.207.39.368.627.484.246.116.512.174.799.174z"/><path id="f" d="M5.09 13.39c.754 0 1.225.302 1.414.907.057-.091.143-.2.258-.323.123-.124.27-.24.443-.348.172-.107.369-.198.59-.273a2.582 2.582 0 0 1 1.795.112c.344.149.643.364.897.645.263.282.472.63.627 1.043.156.414.234.882.234 1.403 0 .513-.078.98-.234 1.403a3.367 3.367 0 0 1-.614 1.092c-.255.298-.55.53-.886.695a2.364 2.364 0 0 1-1.057.248c-.385 0-.742-.074-1.07-.223a3.295 3.295 0 0 1-.799-.534v3.34H5.582V15.04c0-.281-.07-.48-.21-.596a.72.72 0 0 0-.516-.186l.234-.869zm5.127 3.203c0-.372-.053-.703-.16-.993a2.173 2.173 0 0 0-.418-.757 1.708 1.708 0 0 0-.615-.472 1.716 1.716 0 0 0-.737-.161c-.353 0-.673.09-.96.273a2.197 2.197 0 0 0-.639.57v3.179c.213.223.455.41.726.558.278.141.586.211.922.211.278 0 .533-.058.762-.173.23-.116.426-.278.59-.485.172-.215.303-.467.394-.757a3.42 3.42 0 0 0 .135-.993z"/><path id="g" d="M18.372 16.618c0-.323-.054-.629-.16-.919a2.215 2.215 0 0 0-.43-.757 1.966 1.966 0 0 0-.652-.509 1.684 1.684 0 0 0-.811-.198c-.648 0-1.152.215-1.513.645-.36.43-.54 1.001-.54 1.713 0 .323.048.633.147.931.106.29.25.546.43.77.189.215.406.389.652.521.254.124.528.186.824.186.32 0 .606-.058.86-.173a1.78 1.78 0 0 0 .64-.485c.18-.215.315-.467.405-.757.099-.29.148-.612.148-.968zm-5.238 0c0-.521.082-.989.246-1.403.164-.422.385-.778.664-1.067.287-.29.623-.514 1.008-.67a3.38 3.38 0 0 1 1.267-.237c.442 0 .856.079 1.241.236.394.157.734.38 1.02.67.288.29.513.642.677 1.056.164.414.246.877.246 1.39 0 .513-.082.98-.246 1.403-.156.414-.377.77-.664 1.067a3.03 3.03 0 0 1-1.02.696 3.285 3.285 0 0 1-1.255.235c-.459 0-.885-.082-1.278-.248a3.063 3.063 0 0 1-1.008-.695 3.352 3.352 0 0 1-.664-1.068 3.848 3.848 0 0 1-.234-1.365z"/><path id="h" d="M24.134 19.994c-.394 0-.767-.078-1.12-.235a2.772 2.772 0 0 1-.909-.67 3.243 3.243 0 0 1-.602-1.043 4.118 4.118 0 0 1-.222-1.39 4 4 0 0 1 .222-1.354c.155-.422.36-.782.614-1.08a2.93 2.93 0 0 1 .91-.72c.344-.174.71-.26 1.094-.26.427 0 .791.086 1.095.26.311.174.553.352.725.534v-3.377h1.106v7.622c0 .315.074.522.222.621a.982.982 0 0 0 .504.137l-.234.869c-.778 0-1.254-.315-1.426-.944a2.923 2.923 0 0 1-.762.72c-.32.207-.726.31-1.217.31zm.245-.993c.304 0 .59-.07.861-.21a2.27 2.27 0 0 0 .7-.572v-3.202a2.319 2.319 0 0 0-.65-.547 1.67 1.67 0 0 0-.923-.26c-.295 0-.565.062-.811.186a1.919 1.919 0 0 0-.615.509 2.271 2.271 0 0 0-.393.77c-.09.29-.136.604-.136.943 0 .348.05.666.148.956.098.29.234.542.406.757.18.207.389.372.627.497.245.115.508.173.787.173z"/><path id="i" d="M30.57 17.077c.074.604.283 1.076.627 1.415.344.34.8.51 1.365.51.369 0 .7-.038.996-.112a5.77 5.77 0 0 0 .848-.31l.258.955c-.295.14-.627.253-.996.335a5.685 5.685 0 0 1-1.241.124 3.29 3.29 0 0 1-1.242-.223 2.752 2.752 0 0 1-.947-.658 3.058 3.058 0 0 1-.59-1.055 4.583 4.583 0 0 1-.209-1.44c0-.48.07-.927.209-1.34.14-.415.336-.77.59-1.068.254-.307.558-.542.91-.708.352-.174.746-.26 1.18-.26.46 0 .86.078 1.205.235.344.157.631.373.86.646.23.273.402.591.517.956.115.364.172.749.172 1.154 0 .29-.012.571-.037.844H30.57zm1.734-2.867c-.484 0-.882.165-1.193.496-.303.331-.488.82-.553 1.465h3.504c0-.629-.156-1.113-.468-1.452-.31-.34-.741-.51-1.29-.51z"/><path id="k" d="M.221 2.073l.471.168.001-.003-.472-.165zM.836.981L.461.65.456.655l.38.326zm.959-.72l-.21-.454-.003.001.213.453zM4.02.199l-.204.456.007.003.008.003L4.02.2zm.787.471l-.326.38.826.71V.67h-.5zm0-.521v-.5h-.5v.5h.5zm1.008 0h.5v-.5h-.5v.5zm.222 5.512l-.28.414.014.01.013.007.253-.431zm.504.136l.483.13.169-.63H6.54v.5zm-.234.87v.5h.383l.1-.371-.483-.13zm-1.426-.97l.485-.122-.26-1.02-.626.845.401.298zm-.344.398l.355.352-.355-.352zm-.43.335l.258.428-.259-.428zm-2.361.087l-.208.455.004.002.204-.457zm-.91-.67l-.376.33.005.006.371-.336zM.221 4.804l-.47.168.004.011.466-.179zm3.787.733l-.236-.441.236.44zm.7-.584l.394.309.107-.136v-.173h-.5zm0-3.463h.5v-.258l-.21-.15-.29.408zm-.737-.373l-.177.468.009.003.009.003.16-.474zm-2.287.522l-.383-.322-.001.002.384.32zM1.28 4.345l-.475.157.001.004.474-.161zm.418.757l-.384.321.007.008.377-.329zm.627.484l-.22.45.007.003.213-.453zm9.828-5.4l-.198.46.004.001.194-.46zm.763.46l-.325.38.825.704V.646h-.5zm0-.497v-.5h-.5v.5h.5zm1.008 0h.5v-.5h-.5v.5zm-.812 8.615l-.337-.369-.006.006-.006.006.35.357zm-4.18.174l-.461-.193-.161.384.349.228.273-.42zm.406-.968l.312-.39-.517-.414-.256.61.46.194zm.688.384l.19-.462-.013-.005-.177.467zm2.324-.297l-.337-.37-.004.004.341.366zm.504-2.285h.5v-1.39l-.886 1.072.386.318zm-.713.571l.249.434.003-.002-.252-.432zm-2.152.05l-.198.46.01.003.188-.463zm-.91-.633l-.365.341.005.005.36-.346zM8.44 4.742l-.467.18.005.01.462-.19zm0-2.719l.467.18.001-.003-.468-.177zM9.066.956L8.696.62l-.005.005.375.33zm.947-.695l.209.454.008-.004-.217-.45zm2.803 4.605l.386.318.114-.138v-.18h-.5zm0-3.376h.5v-.26l-.212-.15-.288.41zm-2.274-.36l.198.459.008-.004-.206-.455zM9.497 2.309l.467.177.002-.004-.47-.173zm0 1.949l-.47.173.002.004.468-.177zm.43.732l-.377.329.007.007.37-.336zm.615.46l-.213.452.006.003.207-.455zm10.61-2.992l-.474.16.004.013.47-.173zm-.43-.757l-.384.32.007.01.376-.33zm-.652-.51l-.238.44.01.006.008.004.22-.45zm-2.718 3.092l-.474.157.002.007.003.008.47-.172zm.43.77l-.388.313.006.008.007.008.376-.33zm.652.52l-.237.441.009.005.009.004.22-.45zm2.324-.47l-.383-.322-.001.001.384.32zm.406-.758l-.474-.161-.004.012.478.149zM16.32 1.974l.465.184v-.003l-.465-.181zm.664-1.068l-.356-.352-.005.006.36.346zm1.008-.67l-.186-.464h-.003l.189.464zm2.508 0l-.19.463.004.001.186-.464zm1.697 4.518l-.467-.18-.001.004.468.176zm-1.685 1.763l.19.463.004-.002-.194-.46zm-2.532-.012l-.198.46h.004l.194-.46zM16.97 5.81l-.365.341.005.005.36-.346zm-.664-1.068l-.468.176.004.008.464-.184zM28.118 1.23l-.195.46.52.221.156-.543-.48-.138zm-1.23.05l-.204-.457-.006.003.21.454zm-.577.447l-.378-.328-.008.01.386.318zm-.406.77l-.473-.161-.003.007.476.153zm-.147 4.108v.5h.5v-.5h-.5zm-1.107 0h-.5v.5h.5v-.5zm0-6.455v-.5h-.5v.5h.5zm1.07 0h.5v-.5h-.5v.5zm0 1.403h-.5l.969.174-.47-.174zm.725-1.08L26.13.084l-.01.008.326.38zm.59-.335l.175.468.008-.003.008-.003-.19-.462zm1.095-.112l-.072.495.02.002.018.002.034-.5zm.32.05l.48.138.14-.486-.488-.135-.133.482zm1.267 1.998l.471.168.001-.003-.472-.165zm.615-1.092L29.958.65l-.005.005.38.326zm.96-.72l-.21-.454-.004.001.213.453zm2.224-.062l-.204.456.007.003.008.003.19-.462zm.787.471l-.326.38.826.71V.67h-.5zm0-.521v-.5h-.5v.5h.5zm1.008 0h.5v-.5h-.5v.5zm.222 5.512l-.28.414.014.01.013.007.253-.431zm.504.136l.483.13.169-.63h-.652v.5zm-.234.87v.5h.384l.1-.371-.484-.13zm-1.426-.97l.485-.122-.26-1.02-.626.845.401.298zm-.344.398l.355.352-.355-.352zm-2.791.422l-.208.455.004.002.204-.457zm-.91-.67l-.376.33.005.006.371-.336zm-.615-1.043l-.47.168.004.011.466-.179zm4.488.15l.393.308.107-.136v-.173h-.5zm0-3.464h.5v-.258l-.21-.15-.29.408zm-.738-.373l-.177.468.009.003.009.003.16-.474zm-2.287.522l-.383-.322v.002l.383.32zm-.405 2.706l-.475.157.001.004.474-.161zm.418.757l-.384.321.007.008.377-.329zm.627.484l-.22.45.007.003.213-.453zM5.09 13.39v-.5h-.383l-.1.37.483.13zm1.414.907l-.477.148.322 1.035.578-.917-.423-.266zm.258-.323l-.355-.352-.006.006-.006.006.367.34zm1.033-.62l.16.473-.16-.474zm1.795.11l-.203.458.004.002.199-.46zm.897.646l-.37.335.005.006.365-.34zm.627 3.849l-.469-.174-.003.009.472.165zM10.5 19.05l-.38-.325.38.325zm-3.013.72l-.22.449.007.003.007.003.206-.455zm-.799-.534l.341-.365-.84-.784v1.15h.5zm0 3.34v.5h.5v-.5h-.5zm-1.106 0h-.5v.5h.5v-.5zm-.21-8.132l-.343.364.012.01.012.011.32-.385zm-.516-.186l-.482-.13-.17.63h.652v-.5zm5.201 1.341l-.475.157.003.008.003.008.469-.173zm-.418-.757l-.384.32.007.008.377-.328zm-.615-.472l-.212.453.006.002.206-.455zm-1.696.112l.264.424.004-.002-.268-.422zm-.64.57l-.407-.29-.093.13v.16h.5zm0 3.179h-.5v.2l.138.145.362-.345zm.726.558l-.242.438.008.005.008.004.226-.447zm2.274-.447l-.39-.312-.002.002.392.31zm.394-.757l.477.149.001-.004-.478-.145zm8.13-1.887l-.474.161.005.012.469-.173zm-.43-.757l-.384.321.007.009.377-.33zm-.652-.509l-.237.44.008.005.01.004.219-.449zm-2.717 3.091l-.475.157.003.008.002.008.47-.173zm.43.77l-.389.314.006.008.007.007.376-.33zm.652.521l-.237.44.008.005.01.004.219-.449zm2.323-.472l-.383-.32h-.001l.384.32zm.406-.757l-.474-.16-.003.012.477.148zm-4.844-2.37l.465.183.001-.003-.466-.18zm.664-1.068l-.355-.352-.005.005.36.347zm1.008-.67l-.185-.465-.004.001.19.463zm2.508 0l-.189.462.004.002.185-.465zm1.697 4.518l-.466-.181-.002.005.468.176zm-1.684 1.763l.189.463.004-.003-.193-.46zm-2.533-.013l-.198.46.004.001.194-.46zm-1.008-.695l-.366.342.005.005.36-.347zm-.664-1.068l-.468.177.003.008.465-.185zm9.647 1.776l-.208.454.004.002.204-.456zm-.91-.67l-.376.329.005.006.371-.336zm-.602-1.043l-.471.167v.003l.47-.17zm0-2.744l-.47-.173-.001.005.47.168zm.614-1.08l-.38-.325.38.325zm3.098-.72l-.248.434.005.003.243-.437zm.726.534l-.363.343.863.914v-1.257h-.5zm0-3.377v-.5h-.5v.5h.5zm1.106 0h.5v-.5h-.5v.5zm.222 8.243l-.28.415.014.009.013.008.253-.432zm.504.137l.483.13.169-.63h-.652v.5zm-.234.869v.5h.384l.1-.37-.484-.13zm-1.426-.944l.482-.132-.278-1.017-.611.86.407.29zm-.762.72l.271.42.008-.005-.28-.415zm-.11-.894l.23.444.005-.003-.236-.44zm.7-.57l.388.315.112-.138v-.178h-.5zm0-3.203h.5v-.173l-.107-.136-.393.309zm-.652-.547l-.27.421.007.005.008.004.255-.43zm-1.733-.074l-.226-.447-.006.004.232.443zm-1.008 1.278l.477.15.001-.005-.478-.145zm.418 2.657l-.39.312.006.009.007.008.377-.329zm.627.497l-.232.443.01.005.009.004.213-.452zm6.977-1.75v-.5h-.565l.069.56.496-.06zm2.988 1.812l.122.485.013-.004-.135-.481zm.848-.31l.483-.131-.154-.57-.538.246.209.454zm.258.955l.215.451.377-.179-.11-.402-.482.13zm-3.48.236l-.195.46.008.004.188-.464zm-.946-.658l-.376.33.005.005.005.006.366-.34zm-.59-1.055l-.475.157.001.003.474-.16zm.59-3.848l.38.324.005-.005-.385-.32zm.91-.708l.212.453.009-.005-.221-.448zm3.897 3.575v.5h.457l.041-.455-.498-.045zm-3.934-2.37l-.364-.343-.005.004.369.338zm-.553 1.464l-.498-.05-.056.55h.554v-.5zm3.504 0v.5h.5v-.5h-.5zM.5 3.414c-.002-.44.058-.802.192-1.173l-.942-.336c-.16.457-.248.988-.25 1.509h1zm.193-1.176c.131-.381.29-.664.523-.932l-.76-.65C.164 1-.087 1.445-.25 1.907l.944.33zm.518-.926c.235-.27.473-.45.797-.599l-.426-.905A3.662 3.662 0 0 0 .462.65l.749.662zm.793-.597A2.21 2.21 0 0 1 3.024.5v-1a3.625 3.625 0 0 0-1.438.307l.418.908zM3.024.5c.32-.002.55.042.792.155l.41-.913A3.133 3.133 0 0 0 3.023-.5v1zm.807.161c.269.109.462.224.65.388l.652-.758a3.58 3.58 0 0 0-.923-.555L3.83.66zm1.476.01V.148h-1V.67h1zm-.5-.022h1.008v-1H4.807v1zm.508-.5V5.04h1V.149h-1zm0 4.891c0 .355.078.79.442 1.035l.559-.83c.034.024.035.045.026.018a.707.707 0 0 1-.027-.223h-1zm.47 1.052c.214.12.51.2.756.205v-1a.345.345 0 0 1-.252-.068l-.505.863zm.273-.425l-.234.87.966.259.234-.869-.966-.26zm.25.5c-.33 0-.537-.069-.667-.157-.12-.081-.218-.21-.275-.435l-.97.246c.107.421.329.776.684 1.017.346.235.77.328 1.227.328v-1zM4.48 5.4a3.015 3.015 0 0 1-.299.343l.711.704c.143-.144.28-.304.39-.45L4.48 5.4zm-.299.343c-.1.102-.194.176-.334.26l.518.855c.189-.115.38-.265.527-.411l-.71-.704zm-.334.26a1.546 1.546 0 0 1-.43.182l.272.962a2.97 2.97 0 0 0 .676-.289l-.518-.855zm-.43.182c-.169.05-.326.07-.54.068v1c.278 0 .571-.039.812-.106l-.272-.962zm-.54.068a2.054 2.054 0 0 1-.927-.192l-.408.913a3.47 3.47 0 0 0 1.335.28v-1zm-.923-.19a2.08 2.08 0 0 1-.747-.552l-.742.672c.298.324.683.608 1.073.789l.416-.91zm-.742-.546a2.729 2.729 0 0 1-.524-.892l-.933.358c.172.444.422.867.705 1.194l.752-.66zm-.52-.88C.558 4.266.498 3.886.5 3.413h-1c.002.552.09 1.1.25 1.558l.942-.336zm2.43 1.623a2.58 2.58 0 0 0 1.122-.282l-.472-.882c-.223.123-.4.168-.65.164v1zm1.122-.282c.322-.176.635-.436.858-.716l-.786-.618a1.51 1.51 0 0 1-.544.452l.472.882zm.965-1.025V1.49h-1v3.463h1zm-.21-3.87a3.545 3.545 0 0 0-.868-.44l-.32.948c.238.079.418.17.608.306L5 1.082zM4.148.65A3.071 3.071 0 0 0 3.134.468v1c.251-.002.44.032.66.117L4.147.65zM3.134.468A2.61 2.61 0 0 0 2.111.69l.426.904c.193-.094.356-.129.598-.126v-1zM2.111.69a2.594 2.594 0 0 0-.81.627l.767.643c.144-.176.271-.276.469-.366L2.11.69zm-.811.629a3.024 3.024 0 0 0-.496.92l.95.314c.082-.258.173-.428.315-.595l-.769-.64zm-.496.92A3.84 3.84 0 0 0 .63 3.377h1a2.417 2.417 0 0 1 .122-.824l-.95-.314zM.63 3.377c.002.385.063.786.173 1.125l.95-.314a2.375 2.375 0 0 1-.123-.811h-1zm.174 1.129c.115.33.299.664.508.917l.767-.642a1.645 1.645 0 0 1-.328-.597l-.947.322zm.515.925c.214.242.502.464.785.605l.438-.9a1.29 1.29 0 0 1-.47-.362l-.753.657zm.79.608c.299.137.673.218 1.013.221v-1a1.173 1.173 0 0 1-.586-.126l-.426.905zM11.17.5c.322-.002.55.04.785.145l.397-.918A3.183 3.183 0 0 0 11.169-.5v1zm.79.147c.262.11.45.222.63.379l.65-.76a3.613 3.613 0 0 0-.893-.54l-.388.921zm1.456-.001V.149h-1v.497h1zm-.5.003h1.008v-1h-1.008v1zm.508-.5v6.306h1V.15h-1zm0 6.306c.001.5-.054.873-.179 1.206l.94.344c.153-.429.237-.974.239-1.55h-1zm-.179 1.206c-.117.33-.252.54-.47.734l.675.738c.306-.286.573-.696.734-1.128l-.939-.344zm-.482.746c-.21.209-.417.332-.726.427l.306.952c.413-.136.82-.377 1.119-.664l-.7-.715zm-.726.427c-.32.105-.645.151-1.052.15v1a4.65 4.65 0 0 0 1.358-.198l-.306-.952zm-1.052.15c-.354.001-.66-.037-.981-.12l-.25.968c.384.098.815.151 1.231.152v-1zm-.981-.12a2.466 2.466 0 0 1-.798-.345l-.547.838a3.89 3.89 0 0 0 1.095.475l.25-.969zm-.61.267l.405-.968-.922-.387-.406.969.922.386zm-.368-.77c.23.18.527.347.823.461l.354-.935a1.833 1.833 0 0 1-.553-.308l-.624.781zm.81.456c.315.126.73.197 1.15.199v-1c-.336.002-.56-.035-.77-.124l-.38.925zm1.15.199c.67 0 1.26-.178 1.705-.594l-.682-.73c-.21.196-.53.324-1.024.324v1zm1.7-.59c.484-.44.668-1.103.668-1.86h-1c0 .619-.152.949-.34 1.121l.673.74zm.668-1.86v-.794h-1v.795h1zm-.886-1.112c-.129.16-.299.295-.58.458l.505.863a3.37 3.37 0 0 0 .847-.684l-.772-.637zm-.576.456c-.238.142-.477.198-.845.194v1c.484-.003.975-.122 1.343-.327l-.498-.867zm-.845.194a2.08 2.08 0 0 1-.868-.174l-.379.926c.39.157.837.246 1.247.248v-1zm-.859-.17a2.09 2.09 0 0 1-.748-.52l-.721.692c.298.307.683.575 1.072.746l.397-.918zm-.743-.515a2.652 2.652 0 0 1-.542-.868l-.925.382c.182.435.443.85.736 1.168l.731-.682zm-.538-.856c-.14-.358-.202-.731-.2-1.211h-1c.001.563.095 1.116.267 1.57l.933-.36zm-.2-1.211c-.002-.437.06-.79.2-1.15l-.933-.358c-.171.451-.265.984-.267 1.508h1zM8.907 2.2c.14-.375.302-.653.535-.914l-.75-.66a4.144 4.144 0 0 0-.72 1.221l.935.353zm.53-.908a2.21 2.21 0 0 1 .785-.577l-.418-.909c-.405.19-.802.48-1.108.814l.74.672zm.793-.58A1.94 1.94 0 0 1 11.17.5v-1c-.465.003-.96.115-1.373.31l.434.901zm1.062 5.399c.39-.004.809-.11 1.132-.289l-.494-.87c-.202.12-.372.163-.638.159v1zm1.132-.289c.298-.17.58-.403.778-.638l-.771-.636c-.131.162-.274.278-.501.405l.494.87zm.892-.956V1.49h-1v3.376h1zm-.212-3.785a4.465 4.465 0 0 0-.739-.41l-.4.917c.224.098.398.193.564.31l.575-.817zm-.739-.41a2.927 2.927 0 0 0-1.086-.203v1c.3-.002.494.032.685.12l.401-.916zM11.279.469c-.307.003-.657.08-.944.206l.413.911c.189-.088.331-.12.531-.117v-1zm-.936.203c-.279.124-.57.335-.786.57l.74.672c.144-.163.263-.25.443-.324L10.343.67zm-.786.57a2.94 2.94 0 0 0-.53.895l.939.346c.09-.249.183-.41.331-.57l-.74-.672zm-.528.89c-.122.33-.19.746-.192 1.159h1c-.002-.332.036-.57.127-.804l-.935-.354zM8.837 3.29c.001.396.07.806.19 1.14l.939-.345a2.095 2.095 0 0 1-.13-.795h-1zm.192 1.145c.123.32.312.64.521.884l.754-.657a1.702 1.702 0 0 1-.34-.581l-.935.354zm.528.891c.214.233.498.445.772.576l.425-.905a1.255 1.255 0 0 1-.457-.343l-.74.672zm.778.58c.288.126.641.202.957.205v-1a1.12 1.12 0 0 1-.544-.117l-.412.911zm11.476-2.53a3.369 3.369 0 0 0-.19-1.09l-.939.345c.093.246.131.466.13.746h1zm-.186-1.079a2.944 2.944 0 0 0-.528-.926l-.752.66c.157.175.252.342.333.588l.947-.322zm-.52-.917a2.698 2.698 0 0 0-.816-.638l-.439.899c.209.099.343.204.488.38l.766-.641zM20.306.75a2.414 2.414 0 0 0-1.049-.258v1c.235-.003.386.033.575.139l.474-.88zM19.258.493c-.77 0-1.425.263-1.895.824l.766.643c.25-.3.604-.467 1.13-.467v-1zm-1.895.824c-.455.543-.658 1.238-.658 2.035h1c0-.627.157-1.074.424-1.392l-.766-.643zm-.658 2.035c.002.362.063.75.173 1.088l.95-.314a2.257 2.257 0 0 1-.123-.774h-1zm.178 1.103c.122.326.305.654.51.911l.779-.628a2.003 2.003 0 0 1-.35-.628l-.939.345zm.524.927c.219.247.506.476.79.632l.474-.88a1.642 1.642 0 0 1-.512-.411l-.752.659zm.808.641c.308.147.693.234 1.043.237v-1a1.173 1.173 0 0 1-.604-.135l-.44.898zm1.043.237a2.78 2.78 0 0 0 1.068-.219l-.415-.91a1.37 1.37 0 0 1-.653.129v1zm1.068-.219a2.51 2.51 0 0 0 .816-.62l-.768-.639a1.103 1.103 0 0 1-.463.35l.415.91zm.815-.618c.212-.256.394-.595.5-.93l-.955-.297c-.073.245-.162.41-.311.585l.766.642zm.496-.917c.11-.332.173-.736.174-1.13h-1a2.3 2.3 0 0 1-.12.808l.946.322zm-5.063-1.13c-.002-.478.063-.852.21-1.218l-.93-.368a4.506 4.506 0 0 0-.28 1.587h1zm.212-1.221c.145-.38.314-.652.558-.902l-.72-.693c-.314.329-.588.768-.77 1.233l.932.362zm.553-.897c.25-.255.502-.423.842-.56l-.378-.925c-.43.178-.85.457-1.175.781l.71.704zM18.177.7a2.685 2.685 0 0 1 1.081-.2v-1a4.104 4.104 0 0 0-1.452.272l.371.928zm1.081-.2a2.56 2.56 0 0 1 1.053.199l.378-.926a3.978 3.978 0 0 0-1.43-.273v1zm1.056.2c.348.136.603.304.851.558l.71-.704a3.693 3.693 0 0 0-1.19-.782l-.37.928zm.851.558c.252.25.423.518.567.888l.93-.369a3.825 3.825 0 0 0-.786-1.223l-.71.704zm.567.888c.147.365.212.736.21 1.206h1a4.47 4.47 0 0 0-.28-1.575l-.93.369zm.21 1.206c.002.47-.063.846-.212 1.221l.933.363c.18-.47.278-1.028.28-1.584h-1zm-.213 1.226a2.393 2.393 0 0 1-.556.897l.72.694c.321-.338.596-.78.771-1.238l-.935-.353zm-.556.897a2.34 2.34 0 0 1-.855.581l.388.922a3.756 3.756 0 0 0 1.187-.81l-.72-.693zm-.85.58c-.338.14-.66.2-1.065.198v1a4.01 4.01 0 0 0 1.443-.273l-.378-.926zm-1.065.198a2.57 2.57 0 0 1-1.085-.21l-.387.923c.441.183.965.285 1.472.287v-1zm-1.081-.208a2.37 2.37 0 0 1-.846-.582l-.72.693c.324.333.741.621 1.171.808l.395-.919zm-.84-.577a2.652 2.652 0 0 1-.565-.91l-.93.368c.183.455.454.89.764 1.225l.73-.683zm-.562-.902a3.15 3.15 0 0 1-.201-1.19h-1c.002.54.095 1.083.265 1.542l.936-.352zM28.314.769a2.145 2.145 0 0 0-.749-.14v1c.169-.001.255.013.358.06l.391-.92zm-.749-.14a2.37 2.37 0 0 0-.88.193l.409.913a.962.962 0 0 1 .471-.105v-1zm-.887.196a2.466 2.466 0 0 0-.745.573l.756.655c.138-.163.247-.248.411-.321l-.422-.907zm-.753.582c-.194.24-.373.576-.493.928l.947.32c.092-.277.184-.454.318-.611l-.772-.637zm-.496.935c-.11.349-.17.79-.171 1.246h1c-.001-.389.037-.676.123-.94l-.952-.306zm-.171 1.246v3.016h1V3.588h-1zm.5 2.516H24.65v1h1.107v-1zm-.607.5V.15h-1v6.455h1zm-.5-5.955h1.07v-1h-1.07v1zm.57-.5v1.403h1V.149h-1zm.969 1.577c.063-.173.137-.319.246-.486l-.84-.543c-.137.213-.26.456-.344.68l.938.349zm.246-.486c.103-.162.199-.273.336-.389L26.12.092a3.013 3.013 0 0 0-.525.605l.84.543zm.327-.381c.138-.116.264-.187.448-.254l-.35-.937c-.258.098-.525.25-.731.417l.633.774zm.464-.26A1.24 1.24 0 0 1 27.774.5v-1a2.654 2.654 0 0 0-.928.174l.38.925zM27.774.5c.106 0 .189.005.285.02l.143-.99a3.23 3.23 0 0 0-.428-.03v1zm.323.024a.946.946 0 0 1 .22.033l.266-.965a2.366 2.366 0 0 0-.419-.066l-.067.998zm-.127-.588l-.332 1.155.96.276.333-1.154-.961-.277zm2.027 3.478c-.002-.44.058-.802.192-1.173l-.942-.336c-.16.457-.248.988-.25 1.509h1zm.193-1.176a2.67 2.67 0 0 1 .523-.932l-.76-.65a4.09 4.09 0 0 0-.707 1.252l.944.33zm.518-.926c.235-.27.473-.45.797-.599l-.426-.905a3.66 3.66 0 0 0-1.12.842l.749.662zM31.5.715A2.21 2.21 0 0 1 32.521.5v-1a3.625 3.625 0 0 0-1.438.307l.418.908zM32.521.5c.32-.002.55.042.792.155l.41-.913A3.133 3.133 0 0 0 32.521-.5v1zm.807.161c.269.109.462.224.65.388l.652-.758a3.58 3.58 0 0 0-.923-.555l-.379.925zm1.476.01V.148h-1V.67h1zm-.5-.022h1.008v-1h-1.008v1zm.508-.5V5.04h1V.149h-1zm0 4.891c0 .355.078.79.443 1.035l.558-.83c.034.024.035.045.026.018a.707.707 0 0 1-.027-.223h-1zm.47 1.052c.214.12.51.2.756.205v-1a.345.345 0 0 1-.252-.068l-.505.863zm.273-.425l-.234.87.966.259.234-.869-.966-.26zm.25.5c-.33 0-.537-.069-.667-.157-.12-.081-.218-.21-.275-.435l-.97.246c.107.421.329.776.684 1.017.346.235.77.328 1.227.328v-1zM33.976 5.4a3.014 3.014 0 0 1-.298.343l.71.704c.143-.144.28-.304.39-.45l-.802-.597zm-.298.343a1.53 1.53 0 0 1-.335.26l.519.855c.188-.115.38-.265.526-.411l-.71-.704zm-.335.26a1.546 1.546 0 0 1-.43.182l.272.962a2.97 2.97 0 0 0 .677-.289l-.519-.855zm-.43.182c-.169.05-.326.07-.54.068v1c.278 0 .572-.039.812-.106l-.272-.962zm-.54.068a2.054 2.054 0 0 1-.927-.192l-.408.913a3.47 3.47 0 0 0 1.335.28v-1zm-.923-.19a2.082 2.082 0 0 1-.747-.552l-.742.672c.298.324.683.608 1.073.789l.416-.91zm-.742-.546a2.73 2.73 0 0 1-.524-.892l-.933.358c.172.444.422.867.705 1.194l.752-.66zm-.52-.88c-.134-.37-.194-.75-.192-1.223h-1c.002.552.09 1.1.25 1.558l.942-.336zm2.43 1.623a2.58 2.58 0 0 0 1.122-.282l-.472-.882c-.223.123-.4.168-.65.164v1zm1.122-.282c.322-.176.635-.436.858-.716l-.786-.618c-.154.2-.309.329-.544.452l.472.882zm.965-1.025V1.49h-1v3.463h1zm-.21-3.87a3.545 3.545 0 0 0-.868-.44l-.32.948c.238.079.418.17.608.306l.58-.815zm-.85-.433a3.071 3.071 0 0 0-1.014-.182v1c.251-.002.441.032.66.117l.353-.935zM32.631.468a2.61 2.61 0 0 0-1.024.222l.426.904a1.2 1.2 0 0 1 .598-.126v-1zM31.608.69a2.594 2.594 0 0 0-.81.627l.767.643c.144-.176.271-.276.469-.366L31.608.69zm-.81.629a3.022 3.022 0 0 0-.497.92l.95.314c.082-.258.173-.428.315-.595l-.769-.64zm-.497.92c-.11.339-.171.744-.173 1.138h1a2.416 2.416 0 0 1 .122-.824l-.95-.314zm-.173 1.138c.002.385.063.786.173 1.125l.95-.314a2.374 2.374 0 0 1-.123-.811h-1zm.174 1.129c.115.33.299.664.509.917l.766-.642a1.645 1.645 0 0 1-.328-.597l-.947.322zm.515.925c.214.242.502.464.785.605l.438-.9a1.291 1.291 0 0 1-.47-.362l-.753.657zm.79.608c.299.137.673.218 1.013.221v-1a1.173 1.173 0 0 1-.586-.126l-.426.905zM5.09 13.89c.314 0 .518.063.65.148.162.094.223.181.287.407l.954-.297a1.921 1.921 0 0 0-.702-.952c-.34-.218-.749-.306-1.189-.306v1zm1.837.673c.042-.068.1-.139.202-.25l-.734-.679a3.064 3.064 0 0 0-.314.396l.846.533zm.19-.237c.1-.103.203-.183.353-.276l-.53-.848a3.174 3.174 0 0 0-.533.42l.71.704zm.353-.276a2.09 2.09 0 0 1 .484-.223l-.319-.948c-.247.084-.496.2-.695.323l.53.848zm.484-.223c.18-.062.346-.087.578-.086v-1a3.036 3.036 0 0 0-.897.138l.32.948zm.578-.086c.317-.002.568.05.855.18l.405-.913a3.307 3.307 0 0 0-1.26-.267v1zm.86.183c.295.125.508.278.724.521l.742-.67a3.302 3.302 0 0 0-1.07-.77l-.397.919zm.73.527c.228.242.387.506.524.878l.936-.352a3.844 3.844 0 0 0-.729-1.208l-.731.682zm.524.878c.141.368.204.747.202 1.227h1a4.682 4.682 0 0 0-.266-1.579l-.936.352zm.202 1.227c.002.472-.061.852-.203 1.23l.938.346c.17-.467.263-1.022.265-1.576h-1zm-.206 1.238c-.13.38-.29.664-.522.932l.76.65c.292-.345.542-.79.706-1.252l-.944-.33zm-.523.933c-.22.261-.435.43-.726.57l.442.898c.382-.191.757-.485 1.045-.82l-.76-.648zm-.726.57a1.68 1.68 0 0 1-.836.197v1a3.09 3.09 0 0 0 1.278-.3l-.442-.896zm-.836.197a1.867 1.867 0 0 1-.863-.178l-.413.91c.379.17.84.266 1.276.268v-1zm-.849-.172a2.603 2.603 0 0 1-.679-.45l-.682.731c.244.225.571.444.92.617l.441-.898zm-1.52-.085v3.34h1v-3.34h-1zm.5 2.84H5.582v1h1.106v-1zm-.606.5V15.04h-1v7.536h1zm0-7.536c0-.347-.085-.727-.39-.98l-.639.769c-.026-.022.029-.004.029.211h1zm-.366-.959a1.218 1.218 0 0 0-.86-.323v1c.11 0 .151.029.173.05l.687-.727zm-.377.307l.234-.869-.966-.26-.233.87.965.26zm5.378 2.204a3.591 3.591 0 0 0-.19-1.166l-.94.346c.093.243.131.488.13.82h1zm-.185-1.15a2.902 2.902 0 0 0-.516-.929l-.754.657c.148.165.238.331.32.586l.95-.314zm-.509-.92a2.44 2.44 0 0 0-.793-.607l-.412.91c.187.082.302.17.437.336l.768-.639zm-.787-.605a2.449 2.449 0 0 0-.95-.208v1a1.04 1.04 0 0 1 .526.114l.425-.906zm-.95-.208a2.477 2.477 0 0 0-1.226.35l.536.845c.223-.148.407-.2.69-.195v-1zm-1.223.348c-.314.199-.6.455-.782.706l.814.58c.113-.163.254-.287.497-.437l-.529-.848zm-.875.996v3.178h1v-3.178h-1zm.138 3.523c.241.25.543.483.846.651l.483-.876a2.293 2.293 0 0 1-.605-.465l-.724.69zm.862.66c.335.164.756.261 1.148.264v-1c-.28.003-.474-.04-.697-.157l-.45.893zm1.148.264a2.4 2.4 0 0 0 .987-.227l-.45-.893a.994.994 0 0 1-.537.12v1zm.987-.227c.277-.143.558-.373.757-.62l-.784-.621c-.128.167-.241.26-.423.348l.45.893zm.756-.618c.2-.255.375-.59.48-.921l-.955-.297a1.598 1.598 0 0 1-.306.593l.78.625zm.481-.925c.1-.336.156-.74.157-1.138h-1c.001.33-.034.589-.114.848l.957.29zm8.312-1.113a3.369 3.369 0 0 0-.19-1.091l-.94.345c.093.247.131.466.13.746h1zm-.187-1.08a2.946 2.946 0 0 0-.527-.925l-.753.659c.157.175.252.342.333.588l.947-.321zm-.52-.917a2.696 2.696 0 0 0-.816-.637l-.439.898c.209.1.344.204.488.381l.767-.642zm-.798-.628a2.414 2.414 0 0 0-1.049-.258v1c.236-.004.387.032.575.138l.474-.88zm-1.049-.258c-.77 0-1.424.262-1.895.824l.766.642c.25-.299.605-.466 1.13-.466v-1zm-1.895.824c-.454.542-.658 1.237-.658 2.034h1c0-.626.158-1.073.424-1.392l-.766-.642zm-.658 2.034c.002.362.063.751.173 1.088l.95-.314a2.255 2.255 0 0 1-.123-.774h-1zm.178 1.104c.122.326.306.653.511.91l.778-.627a2.006 2.006 0 0 1-.35-.628l-.938.345zm.524.926c.219.247.506.477.79.632l.475-.88a1.64 1.64 0 0 1-.513-.41l-.752.658zm.808.641a2.58 2.58 0 0 0 1.043.237v-1a1.173 1.173 0 0 1-.604-.135l-.439.898zm1.043.237a2.78 2.78 0 0 0 1.069-.219l-.415-.91a1.37 1.37 0 0 1-.654.13v1zm1.069-.219a2.51 2.51 0 0 0 .816-.619l-.769-.64a1.102 1.102 0 0 1-.462.35l.415.91zm.815-.617c.21-.257.393-.596.5-.93l-.955-.297a1.48 1.48 0 0 1-.312.584l.767.643zm.496-.918a3.73 3.73 0 0 0 .174-1.13h-1c.001.319-.035.561-.121.808l.947.322zm-5.064-1.13c-.002-.477.063-.852.21-1.218l-.929-.368a4.504 4.504 0 0 0-.28 1.587h1zm.212-1.22c.145-.38.314-.653.558-.903l-.72-.693c-.313.33-.587.769-.77 1.233l.932.362zm.553-.898c.25-.255.502-.423.842-.559l-.378-.926c-.43.179-.85.458-1.174.782l.71.703zm.839-.558a2.685 2.685 0 0 1 1.08-.2v-1a4.104 4.104 0 0 0-1.452.272l.372.928zm1.08-.2a2.56 2.56 0 0 1 1.053.2l.378-.927a3.978 3.978 0 0 0-1.43-.273v1zm1.057.2c.347.137.602.304.85.558l.71-.703a3.693 3.693 0 0 0-1.19-.783l-.37.928zm.85.558c.252.25.423.518.567.888l.93-.368a3.825 3.825 0 0 0-.786-1.223l-.71.703zm.567.888c.148.366.213.737.21 1.206h1a4.467 4.467 0 0 0-.28-1.574l-.93.368zm.21 1.206c.003.47-.063.846-.211 1.222l.932.362a4.57 4.57 0 0 0 .28-1.584h-1zm-.213 1.227a2.39 2.39 0 0 1-.556.897l.72.693c.321-.337.597-.78.772-1.238l-.936-.352zm-.556.897c-.25.262-.506.437-.854.58l.387.922a3.758 3.758 0 0 0 1.187-.809l-.72-.693zm-.85.579c-.337.14-.66.2-1.064.198v1a4.01 4.01 0 0 0 1.443-.273l-.378-.925zm-1.064.198a2.57 2.57 0 0 1-1.085-.209l-.388.922c.442.183.966.285 1.473.287v-1zm-1.082-.207a2.371 2.371 0 0 1-.845-.583l-.72.694c.323.332.74.62 1.17.808l.395-.92zm-.84-.578a2.654 2.654 0 0 1-.564-.91l-.93.369c.182.454.453.89.763 1.225l.73-.684zm-.561-.902a3.15 3.15 0 0 1-.202-1.19h-1a4.57 4.57 0 0 0 .266 1.543l.936-.353zm10.298 1.688a2.025 2.025 0 0 1-.916-.193l-.407.913a3.44 3.44 0 0 0 1.323.28v-1zm-.912-.191a2.082 2.082 0 0 1-.746-.551l-.742.67c.298.326.683.61 1.073.79l.416-.91zm-.741-.545a2.55 2.55 0 0 1-.509-.884l-.94.341c.165.446.413.874.697 1.202l.752-.66zm-.508-.881a3.42 3.42 0 0 1-.192-1.223h-1c.002.553.09 1.1.25 1.558l.943-.335zm-.192-1.223a3.302 3.302 0 0 1 .193-1.185l-.942-.336c-.161.457-.25.992-.25 1.521h1zm.19-1.18c.14-.384.302-.668.527-.928l-.761-.65a4.251 4.251 0 0 0-.703 1.232l.938.346zm.526-.928c.23-.27.455-.45.755-.599l-.45-.892c-.388.199-.769.5-1.064.84l.759.651zm.755-.599c.291-.15.542-.21.87-.207v-1a3.12 3.12 0 0 0-1.32.315l.45.892zm.87-.207c.367-.003.606.052.845.195l.497-.868c-.368-.205-.858-.323-1.343-.327v1zm.85.198c.284.157.466.29.606.44l.726-.687a3.75 3.75 0 0 0-.845-.627l-.487.874zm1.469.097v-3.377h-1v3.377h1zm-.5-2.877h1.106v-1h-1.106v1zm.606-.5v7.622h1V10.66h-1zm0 7.622c0 .356.078.79.443 1.036l.558-.83c.034.023.035.044.026.018a.706.706 0 0 1-.027-.224h-1zm.47 1.053c.214.12.51.2.756.205v-1a.345.345 0 0 1-.252-.069l-.505.864zm.273-.425l-.234.869.966.26.234-.87-.966-.26zm.25.499c-.327 0-.534-.067-.665-.153-.123-.081-.22-.207-.28-.423l-.964.264c.113.414.339.759.692.993.344.228.764.319 1.216.319v-1zm-1.834-.734a2.231 2.231 0 0 1-.634.595l.558.83c.353-.24.672-.542.89-.845l-.814-.58zm-.627.59c-.218.142-.522.23-.945.23v1c.56 0 1.067-.118 1.488-.39l-.543-.84zm-.7.237a2.567 2.567 0 0 0 1.092-.267l-.462-.887a1.163 1.163 0 0 1-.63.154v1zm1.097-.27a3 3 0 0 0 .853-.696l-.776-.631a1.585 1.585 0 0 1-.549.445l.472.882zm.965-1.012v-3.202h-1v3.202h1zm-.107-3.511a3.047 3.047 0 0 0-.79-.668l-.51.86c.245.144.392.266.514.425l.786-.617zm-.774-.658a2.394 2.394 0 0 0-1.193-.34v1c.276-.005.446.042.652.181l.54-.841zm-1.193-.34a2.503 2.503 0 0 0-1.037.24l.451.892a1.1 1.1 0 0 1 .586-.132v-1zm-1.043.243c-.283.15-.567.386-.773.64l.78.624c.139-.177.264-.28.456-.378l-.463-.886zm-.773.64a2.998 2.998 0 0 0-.482.937l.957.29c.076-.257.163-.429.305-.603l-.78-.625zm-.48.933c-.101.328-.157.717-.159 1.092h1a2.463 2.463 0 0 1 .113-.795l-.955-.297zm-.159 1.092c.002.386.064.785.175 1.117l.946-.322a2.26 2.26 0 0 1-.12-.795h-1zm.175 1.117c.113.328.29.656.488.908l.781-.624a1.78 1.78 0 0 1-.323-.606l-.947.322zm.502.925c.212.24.494.463.772.61l.463-.886a1.454 1.454 0 0 1-.481-.381l-.754.657zm.79.62c.298.137.668.218 1 .221v-1a1.147 1.147 0 0 1-.573-.126l-.427.905zm6.695-2.142c.084.686.328 1.273.772 1.71l.702-.712c-.245-.241-.418-.598-.482-1.12l-.992.122zm.772 1.71c.454.448 1.043.653 1.716.653v-1c-.458 0-.78-.133-1.014-.365l-.702.713zm1.716.653a4.8 4.8 0 0 0 1.118-.127l-.245-.97a3.374 3.374 0 0 1-.873.097v1zm1.13-.13a6.49 6.49 0 0 0 .922-.337l-.417-.91a5.049 5.049 0 0 1-.774.284l.27.963zm.231-.661l.258.956.966-.261-.258-.956-.966.26zm.526.374a3.994 3.994 0 0 1-.89.299l.219.975c.394-.089.779-.219 1.101-.372l-.43-.902zm-.89.299c-.34.076-.698.112-1.132.111v1a6.41 6.41 0 0 0 1.35-.136l-.218-.976zm-1.132.111c-.415.003-.735-.054-1.055-.187l-.375.928c.418.165.926.258 1.43.26v-1zm-1.046-.183a2.063 2.063 0 0 1-.777-.539l-.732.682c.301.318.702.597 1.117.777l.392-.92zm-.767-.528a2.366 2.366 0 0 1-.492-.885l-.948.32c.156.456.402.894.688 1.225l.752-.66zm-.491-.882c-.128-.38-.185-.781-.184-1.283h-1c.001.574.083 1.133.234 1.597l.95-.314zm-.184-1.283a3.475 3.475 0 0 1 .183-1.181l-.948-.32a4.895 4.895 0 0 0-.235 1.5h1zm.183-1.181c.123-.372.273-.645.497-.903l-.761-.649a3.92 3.92 0 0 0-.684 1.233l.948.319zm.5-.908c.218-.267.435-.435.738-.574l-.425-.905a3.339 3.339 0 0 0-1.082.84l.77.639zm.747-.579c.297-.15.579-.212.96-.209v-1a3.355 3.355 0 0 0-1.402.313l.442.896zm.96-.209c.41-.002.707.055.996.191l.416-.91a3.599 3.599 0 0 0-1.413-.28v1zm.996.191c.297.132.496.28.686.512l.765-.643a3.145 3.145 0 0 0-1.035-.779l-.416.91zm.686.512c.199.233.324.465.422.785l.954-.3a3.48 3.48 0 0 0-.61-1.128l-.766.643zm.422.785c.105.326.15.636.15 1.004h1a4.549 4.549 0 0 0-.196-1.305l-.954.3zm.15 1.004c0 .279-.012.538-.036.8l.996.09c.026-.286.04-.59.04-.89h-1zm.462.344H30.57v1h4.475v-1zm-2.741-2.867c-.612 0-1.145.215-1.557.654l.728.685c.21-.224.473-.34.829-.34v-1zm-1.562.658c-.402.44-.61 1.046-.682 1.752l.995.102c.06-.585.22-.955.425-1.178l-.738-.676zm-.184 2.303h3.504v-1h-3.504v1zm4.004-.5c0-.708-.176-1.33-.6-1.79l-.736.676c.2.218.336.564.336 1.114h1zm-.6-1.79c-.423-.463-.998-.671-1.658-.671v1c.438 0 .724.13.922.347l.737-.677z"/><path id="l" d="M27.048 17.143c0 3.787-3.027 6.857-6.762 6.857-3.734 0-6.762-3.07-6.762-6.857 0-3.787 3.028-6.857 6.762-6.857 3.735 0 6.762 3.07 6.762 6.857zm-1.69 0c0-2.836-2.275-5.143-5.072-5.143-2.796 0-5.071 2.307-5.071 5.143s2.275 5.143 5.071 5.143c2.797 0 5.072-2.307 5.072-5.143zM6.762 6.857H3.381v3.429h3.381V6.857zM3.381 15.43h3.381v-3.43H3.381v3.43zm5.072-5.143h3.38V6.857h-3.38v3.429zm0 5.143h3.38v-3.43h-3.38v3.43zM1.69 16.972V5.142h18.595v3.43h1.69V1.884C21.977.844 21.159 0 20.147 0H1.832C.82 0 0 .844 0 1.885v15.087c0 1.038.82 1.885 1.832 1.885h10.002v-1.714H1.832c-.077 0-.141-.08-.141-.17zm15.214-6.686V6.857h-3.38v3.429h3.38zm5.917 6.857h-2.536V14.57a.85.85 0 0 0-.845-.857.85.85 0 0 0-.845.857v3.43a.85.85 0 0 0 .845.856h3.381a.85.85 0 0 0 .845-.857.851.851 0 0 0-.845-.857z"/></defs></svg>