<svg width="63" height="24" viewBox="0 0 63 24" version="1.1" xmlns="http://www.w3.org/2000/svg" xmlns:xlink="http://www.w3.org/1999/xlink" xmlns:figma="http://www.figma.com/figma/ns">
<title>Group</title>
<desc>Created using Figma</desc>
<g id="Canvas" transform="translate(103 233)" figma:type="canvas">
<g id="Group" style="mix-blend-mode:normal;" figma:type="frame">
<g id="agora pode" style="mix-blend-mode:normal;" figma:type="vector">
<use xlink:href="#path0_fill" transform="translate(-77.0378 -232.172)" fill="#9B51E0" style="mix-blend-mode:normal;"/>
<use xlink:href="#path1_fill" transform="translate(-77.0378 -232.172)" fill="#9B51E0" style="mix-blend-mode:normal;"/>
<use xlink:href="#path2_fill" transform="translate(-77.0378 -232.172)" fill="#9B51E0" style="mix-blend-mode:normal;"/>
<use xlink:href="#path3_fill" transform="translate(-77.0378 -232.172)" fill="#9B51E0" style="mix-blend-mode:normal;"/>
<use xlink:href="#path4_fill" transform="translate(-77.0378 -232.172)" fill="#9B51E0" style="mix-blend-mode:normal;"/>
<use xlink:href="#path5_fill" transform="translate(-77.0378 -232.172)" fill="#9B51E0" style="mix-blend-mode:normal;"/>
<use xlink:href="#path6_fill" transform="translate(-77.0378 -232.172)" fill="#9B51E0" style="mix-blend-mode:normal;"/>
<use xlink:href="#path7_fill" transform="translate(-77.0378 -232.172)" fill="#9B51E0" style="mix-blend-mode:normal;"/>
<use xlink:href="#path8_fill" transform="translate(-77.0378 -232.172)" fill="#9B51E0" style="mix-blend-mode:normal;"/>
<mask id="mask0_outline_out">
<rect id="mask0_outline_inv" fill="white" x="-1" y="-1" width="38" height="25" transform="translate(-77.0378 -232.172)"/>
<use xlink:href="#path0_fill" fill="black" transform="translate(-77.0378 -232.172)"/>
<use xlink:href="#path1_fill" fill="black" transform="translate(-77.0378 -232.172)"/>
<use xlink:href="#path2_fill" fill="black" transform="translate(-77.0378 -232.172)"/>
<use xlink:href="#path3_fill" fill="black" transform="translate(-77.0378 -232.172)"/>
<use xlink:href="#path4_fill" fill="black" transform="translate(-77.0378 -232.172)"/>
<use xlink:href="#path5_fill" fill="black" transform="translate(-77.0378 -232.172)"/>
<use xlink:href="#path6_fill" fill="black" transform="translate(-77.0378 -232.172)"/>
<use xlink:href="#path7_fill" fill="black" transform="translate(-77.0378 -232.172)"/>
<use xlink:href="#path8_fill" fill="black" transform="translate(-77.0378 -232.172)"/>
</mask>
<g mask="url(#mask0_outline_out)">
<use xlink:href="#path9_stroke_2x" transform="translate(-77.0378 -232.172)" fill="#9B51E0" style="mix-blend-mode:normal;"/>
</g>
</g>
<g id="calendar-with-a-clock-time-tools" style="mix-blend-mode:normal;" figma:type="frame">
<g id="Group" style="mix-blend-mode:normal;" figma:type="frame">
<g id="Vector" style="mix-blend-mode:normal;" figma:type="vector">
<use xlink:href="#path10_fill" transform="translate(-103 -233)" fill="#A3E4BE" style="mix-blend-mode:normal;"/>
</g>
</g>
</g>
</g>
</g>
<defs>
<path id="path0_fill" d="M 0 3.41379C 0 2.93379 0.0737679 2.4869 0.221304 2.0731C 0.368839 1.65103 0.57375 1.2869 0.836036 0.98069C 1.10652 0.674483 1.42618 0.434483 1.79502 0.26069C 2.17205 0.0868966 2.58188 0 3.02448 0C 3.39332 0 3.72528 0.0662069 4.02035 0.198621C 4.32362 0.322759 4.5859 0.48 4.80721 0.670345L 4.80721 0.148966L 5.81537 0.148966L 5.81537 5.04C 5.81537 5.35448 5.88914 5.56138 6.03667 5.66069C 6.1924 5.75172 6.36043 5.79724 6.54075 5.79724L 6.30715 6.66621C 5.5203 6.66621 5.0449 6.34345 4.88098 5.69793C 4.78262 5.83034 4.66787 5.96276 4.53673 6.09517C 4.41378 6.21931 4.27034 6.33103 4.10641 6.43035C 3.94248 6.52966 3.75806 6.60828 3.55315 6.66621C 3.34824 6.72414 3.12284 6.7531 2.87695 6.7531C 2.47532 6.7531 2.09829 6.67448 1.74584 6.51724C 1.40159 6.36 1.09832 6.13655 0.836036 5.8469C 0.581947 5.55724 0.377036 5.20966 0.221304 4.80414C 0.0737679 4.39034 0 3.9269 0 3.41379ZM 3.12284 5.76C 3.4343 5.76 3.72938 5.68552 4.00805 5.53655C 4.28673 5.38759 4.52033 5.1931 4.70885 4.9531L 4.70885 1.48966C 4.48755 1.33241 4.24165 1.20828 3.97117 1.11724C 3.70889 1.01793 3.43021 0.968276 3.13513 0.968276C 2.84006 0.968276 2.56958 1.02621 2.32369 1.14207C 2.0778 1.25793 1.86469 1.42345 1.68437 1.63862C 1.51224 1.84552 1.377 2.09793 1.27864 2.39586C 1.18029 2.69379 1.13111 3.02069 1.13111 3.37655C 1.13111 3.72414 1.18029 4.0469 1.27864 4.34483C 1.377 4.63448 1.51634 4.8869 1.69666 5.10207C 1.87698 5.30897 2.08599 5.47035 2.32369 5.58621C 2.56958 5.70207 2.83597 5.76 3.12284 5.76Z"/>
<path id="path1_fill" d="M 11.1687 0C 11.5376 0 11.8654 0.0620689 12.1523 0.186207C 12.4474 0.310345 12.7015 0.463448 12.9146 0.645517L 12.9146 0.148966L 13.9227 0.148966L 13.9227 6.45517C 13.9227 6.9931 13.8531 7.45241 13.7137 7.8331C 13.5744 8.21379 13.3736 8.52414 13.1113 8.76414C 12.8572 9.01241 12.5498 9.19448 12.1892 9.31035C 11.8285 9.42621 11.4269 9.48414 10.9843 9.48414C 10.5991 9.48414 10.2302 9.43862 9.87779 9.34759C 9.52534 9.25655 9.20978 9.12 8.9311 8.93793L 9.33682 7.96965C 9.53354 8.1269 9.76304 8.25517 10.0253 8.35448C 10.2876 8.46207 10.6073 8.51586 10.9843 8.51586C 11.5663 8.51586 12.0212 8.36276 12.349 8.05655C 12.6851 7.75035 12.8531 7.25379 12.8531 6.5669L 12.8531 5.77241C 12.6892 5.97103 12.4515 6.16138 12.14 6.34345C 11.8367 6.51724 11.472 6.60414 11.0458 6.60414C 10.6851 6.60414 10.3327 6.53379 9.98844 6.3931C 9.64419 6.24414 9.34092 6.0331 9.07863 5.76C 8.81635 5.47862 8.60324 5.13931 8.43931 4.74207C 8.28358 4.33655 8.20572 3.8731 8.20572 3.35172C 8.20572 2.87172 8.28358 2.42897 8.43931 2.02345C 8.59505 1.60966 8.80405 1.25379 9.06634 0.955862C 9.33682 0.657931 9.65239 0.426207 10.013 0.26069C 10.3737 0.0868966 10.7589 0 11.1687 0ZM 11.2917 5.61103C 11.6195 5.61103 11.9146 5.53655 12.1769 5.38759C 12.4392 5.23862 12.6523 5.06483 12.8162 4.86621L 12.8162 1.48966C 12.6277 1.35724 12.4105 1.23724 12.1646 1.12966C 11.9187 1.02207 11.6236 0.968276 11.2794 0.968276C 11.0253 0.968276 10.7794 1.02207 10.5417 1.12966C 10.3122 1.22897 10.1073 1.37793 9.92697 1.57655C 9.74664 1.77517 9.60321 2.01931 9.49665 2.30897C 9.3901 2.59034 9.33682 2.91724 9.33682 3.28966C 9.33682 3.64552 9.3901 3.96828 9.49665 4.25793C 9.60321 4.53931 9.74664 4.78345 9.92697 4.99035C 10.1073 5.18897 10.3122 5.34207 10.5417 5.44965C 10.7794 5.55724 11.0294 5.61103 11.2917 5.61103Z"/>
<path id="path2_fill" d="M 21.3113 3.37655C 21.3113 3.05379 21.258 2.74759 21.1515 2.45793C 21.0531 2.16828 20.9097 1.91586 20.7212 1.70069C 20.5409 1.48552 20.3237 1.31586 20.0696 1.19172C 19.8237 1.05931 19.5532 0.993104 19.2581 0.993104C 18.6106 0.993104 18.1065 1.20828 17.7459 1.63862C 17.3852 2.06897 17.2049 2.64 17.2049 3.35172C 17.2049 3.67448 17.2541 3.98483 17.3524 4.28276C 17.459 4.57241 17.6024 4.82897 17.7828 5.05241C 17.9713 5.26759 18.1885 5.44138 18.4344 5.57379C 18.6885 5.69793 18.963 5.76 19.2581 5.76C 19.5778 5.76 19.8647 5.70207 20.1187 5.58621C 20.3728 5.47035 20.5859 5.30897 20.7581 5.10207C 20.9384 4.8869 21.0736 4.63448 21.1638 4.34483C 21.2621 4.05517 21.3113 3.73241 21.3113 3.37655ZM 16.0738 3.37655C 16.0738 2.85517 16.1558 2.38759 16.3197 1.97379C 16.4836 1.55172 16.7049 1.19586 16.9836 0.906207C 17.2705 0.616552 17.6065 0.393104 17.9918 0.235862C 18.3852 0.0786208 18.8073 0 19.2581 0C 19.7007 0 20.1146 0.0786208 20.4999 0.235862C 20.8933 0.393104 21.2335 0.616552 21.5203 0.906207C 21.8072 1.19586 22.0326 1.54759 22.1965 1.96138C 22.3605 2.37517 22.4424 2.83862 22.4424 3.35172C 22.4424 3.86483 22.3605 4.33241 22.1965 4.75448C 22.0408 5.16828 21.8195 5.52414 21.5326 5.82207C 21.2458 6.12 20.9056 6.35172 20.5122 6.51724C 20.1269 6.67448 19.7089 6.7531 19.2581 6.7531C 18.7991 6.7531 18.3729 6.67035 17.9795 6.50483C 17.5942 6.33931 17.2582 6.10759 16.9713 5.80966C 16.6926 5.51172 16.4713 5.15586 16.3074 4.74207C 16.1517 4.32828 16.0738 3.8731 16.0738 3.37655Z"/>
<path id="path3_fill" d="M 28.1183 1.22897C 27.9626 1.16276 27.7782 1.12966 27.5651 1.12966C 27.3356 1.12966 27.1102 1.17931 26.8889 1.27862C 26.6758 1.37793 26.4831 1.5269 26.311 1.72552C 26.1471 1.92414 26.0119 2.18069 25.9053 2.49517C 25.8069 2.80138 25.7578 3.16552 25.7578 3.58759L 25.7578 6.60414L 24.6512 6.60414L 24.6512 0.148966L 25.7209 0.148966L 25.7209 1.55172C 25.7946 1.3531 25.893 1.15862 26.0159 0.968276C 26.1389 0.777931 26.2823 0.612414 26.4463 0.471724C 26.6184 0.331034 26.8151 0.21931 27.0364 0.136552C 27.2577 0.0455172 27.5036 0 27.7741 0C 27.897 0 28.0159 0.00827584 28.1306 0.0248276C 28.2536 0.0331034 28.3601 0.0496551 28.4503 0.0744827L 28.1183 1.22897Z"/>
<path id="path4_fill" d="M 29.4971 3.41379C 29.4971 2.93379 29.5708 2.4869 29.7184 2.0731C 29.8659 1.65103 30.0708 1.2869 30.3331 0.98069C 30.6036 0.674483 30.9232 0.434483 31.2921 0.26069C 31.6691 0.0868966 32.0789 0 32.5215 0C 32.8904 0 33.2223 0.0662069 33.5174 0.198621C 33.8207 0.322759 34.083 0.48 34.3043 0.670345L 34.3043 0.148966L 35.3124 0.148966L 35.3124 5.04C 35.3124 5.35448 35.3862 5.56138 35.5337 5.66069C 35.6895 5.75172 35.8575 5.79724 36.0378 5.79724L 35.8042 6.66621C 35.0174 6.66621 34.542 6.34345 34.378 5.69793C 34.2797 5.83034 34.1649 5.96276 34.0338 6.09517C 33.9108 6.21931 33.7674 6.33103 33.6035 6.43035C 33.4395 6.52966 33.2551 6.60828 33.0502 6.66621C 32.8453 6.72414 32.6199 6.7531 32.374 6.7531C 31.9724 6.7531 31.5954 6.67448 31.2429 6.51724C 30.8987 6.36 30.5954 6.13655 30.3331 5.8469C 30.079 5.55724 29.8741 5.20966 29.7184 4.80414C 29.5708 4.39034 29.4971 3.9269 29.4971 3.41379ZM 32.6199 5.76C 32.9314 5.76 33.2264 5.68552 33.5051 5.53655C 33.7838 5.38759 34.0174 5.1931 34.2059 4.9531L 34.2059 1.48966C 33.9846 1.33241 33.7387 1.20828 33.4682 1.11724C 33.2059 1.01793 32.9273 0.968276 32.6322 0.968276C 32.3371 0.968276 32.0666 1.02621 31.8208 1.14207C 31.5749 1.25793 31.3618 1.42345 31.1814 1.63862C 31.0093 1.84552 30.8741 2.09793 30.7757 2.39586C 30.6774 2.69379 30.6282 3.02069 30.6282 3.37655C 30.6282 3.72414 30.6774 4.0469 30.7757 4.34483C 30.8741 4.63448 31.0134 4.8869 31.1937 5.10207C 31.374 5.30897 31.5831 5.47035 31.8208 5.58621C 32.0666 5.70207 32.333 5.76 32.6199 5.76Z"/>
<path id="path5_fill" d="M 5.08998 13.3903C 5.84406 13.3903 6.31535 13.6924 6.50387 14.2966C 6.56124 14.2055 6.64731 14.0979 6.76206 13.9738C 6.885 13.8497 7.03254 13.7338 7.20466 13.6262C 7.37679 13.5186 7.5735 13.4276 7.79481 13.3531C 8.01611 13.2786 8.262 13.2414 8.53248 13.2414C 8.90132 13.2414 9.25377 13.3159 9.58982 13.4648C 9.93407 13.6138 10.2332 13.829 10.4873 14.1103C 10.7496 14.3917 10.9586 14.7393 11.1144 15.1531C 11.2701 15.5669 11.348 16.0345 11.348 16.5559C 11.348 17.069 11.2701 17.5366 11.1144 17.9586C 10.9668 18.3807 10.7619 18.7448 10.4996 19.051C 10.2455 19.349 9.95047 19.5807 9.61441 19.7462C 9.27836 19.9117 8.92591 19.9945 8.55707 19.9945C 8.17184 19.9945 7.8153 19.92 7.48744 19.771C 7.16778 19.6138 6.90139 19.4359 6.68829 19.2372L 6.68829 22.5766L 5.58177 22.5766L 5.58177 15.0414C 5.58177 14.76 5.5121 14.5614 5.37276 14.4455C 5.24162 14.3214 5.06949 14.2593 4.85639 14.2593L 5.08998 13.3903ZM 10.2169 16.5931C 10.2169 16.2207 10.1636 15.8897 10.057 15.6C 9.95866 15.3021 9.81932 15.0497 9.639 14.8428C 9.46688 14.6359 9.26197 14.4786 9.02427 14.371C 8.79477 14.2634 8.54888 14.2097 8.28659 14.2097C 7.93415 14.2097 7.61448 14.3007 7.32761 14.4828C 7.04893 14.6566 6.83582 14.8469 6.68829 15.0538L 6.68829 18.2317C 6.90139 18.4552 7.14319 18.6414 7.41367 18.7903C 7.69235 18.931 7.99972 19.0014 8.33577 19.0014C 8.61445 19.0014 8.86854 18.9434 9.09804 18.8276C 9.32754 18.7117 9.52425 18.5503 9.68818 18.3434C 9.86031 18.1283 9.99145 17.8759 10.0816 17.5862C 10.1718 17.2883 10.2169 16.9572 10.2169 16.5931Z"/>
<path id="path6_fill" d="M 18.3717 16.6179C 18.3717 16.2952 18.3184 15.989 18.2118 15.6993C 18.1135 15.4097 17.97 15.1572 17.7815 14.9421C 17.6012 14.7269 17.384 14.5572 17.1299 14.4331C 16.884 14.3007 16.6135 14.2345 16.3185 14.2345C 15.6709 14.2345 15.1669 14.4497 14.8062 14.88C 14.4456 15.3103 14.2652 15.8814 14.2652 16.5931C 14.2652 16.9159 14.3144 17.2262 14.4128 17.5241C 14.5193 17.8138 14.6628 18.0703 14.8431 18.2938C 15.0316 18.509 15.2488 18.6828 15.4947 18.8152C 15.7488 18.9393 16.0234 19.0014 16.3185 19.0014C 16.6381 19.0014 16.925 18.9434 17.1791 18.8276C 17.4332 18.7117 17.6463 18.5503 17.8184 18.3434C 17.9987 18.1283 18.134 17.8759 18.2241 17.5862C 18.3225 17.2966 18.3717 16.9738 18.3717 16.6179ZM 13.1341 16.6179C 13.1341 16.0966 13.2161 15.629 13.38 15.2152C 13.544 14.7931 13.7653 14.4372 14.0439 14.1476C 14.3308 13.8579 14.6669 13.6345 15.0521 13.4772C 15.4455 13.32 15.8676 13.2414 16.3185 13.2414C 16.7611 13.2414 17.175 13.32 17.5602 13.4772C 17.9536 13.6345 18.2938 13.8579 18.5807 14.1476C 18.8675 14.4372 19.0929 14.789 19.2569 15.2028C 19.4208 15.6166 19.5028 16.08 19.5028 16.5931C 19.5028 17.1062 19.4208 17.5738 19.2569 17.9959C 19.1011 18.4097 18.8798 18.7655 18.593 19.0634C 18.3061 19.3614 17.9659 19.5931 17.5725 19.7586C 17.1873 19.9159 16.7693 19.9945 16.3185 19.9945C 15.8595 19.9945 15.4332 19.9117 15.0398 19.7462C 14.6546 19.5807 14.3185 19.349 14.0316 19.051C 13.753 18.7531 13.5317 18.3972 13.3677 17.9834C 13.212 17.5697 13.1341 17.1145 13.1341 16.6179Z"/>
<path id="path7_fill" d="M 24.1336 19.9945C 23.7402 19.9945 23.3673 19.9159 23.0148 19.7586C 22.6706 19.6014 22.3673 19.3779 22.105 19.0883C 21.8509 18.7986 21.6501 18.451 21.5026 18.0455C 21.355 17.6317 21.2813 17.1683 21.2813 16.6552C 21.2813 16.1669 21.355 15.7159 21.5026 15.3021C 21.6583 14.88 21.8632 14.52 22.1173 14.2221C 22.3796 13.9159 22.6829 13.6759 23.0271 13.5021C 23.3714 13.3283 23.7361 13.2414 24.1213 13.2414C 24.5475 13.2414 24.9123 13.3283 25.2155 13.5021C 25.527 13.6759 25.7688 13.8538 25.9409 14.0359L 25.9409 10.6593L 27.0474 10.6593L 27.0474 18.2814C 27.0474 18.5959 27.1212 18.8028 27.2688 18.9021C 27.4245 18.9931 27.5925 19.0386 27.7728 19.0386L 27.5392 19.9076C 26.7606 19.9076 26.2852 19.5931 26.1131 18.9641C 25.9245 19.229 25.6704 19.469 25.3508 19.6841C 25.0311 19.891 24.6254 19.9945 24.1336 19.9945ZM 24.3795 19.0014C 24.6828 19.0014 24.9697 18.931 25.2401 18.7903C 25.5188 18.6414 25.7524 18.451 25.9409 18.2193L 25.9409 15.0166C 25.7852 14.8179 25.568 14.6359 25.2893 14.4703C 25.0188 14.2966 24.7115 14.2097 24.3672 14.2097C 24.0721 14.2097 23.8017 14.2717 23.5558 14.3959C 23.3181 14.52 23.1132 14.6897 22.941 14.9048C 22.7689 15.12 22.6378 15.3766 22.5476 15.6745C 22.4574 15.9641 22.4124 16.2786 22.4124 16.6179C 22.4124 16.9655 22.4615 17.2841 22.5599 17.5738C 22.6583 17.8634 22.7935 18.1159 22.9656 18.331C 23.1459 18.5379 23.355 18.7034 23.5927 18.8276C 23.8385 18.9434 24.1008 19.0014 24.3795 19.0014Z"/>
<path id="path8_fill" d="M 30.5701 17.0772C 30.6438 17.6814 30.8528 18.1531 31.1971 18.4924C 31.5413 18.8317 31.9962 19.0014 32.5618 19.0014C 32.9306 19.0014 33.2626 18.9641 33.5577 18.8897C 33.8527 18.8069 34.1355 18.7034 34.406 18.5793L 34.6642 19.5352C 34.3691 19.6759 34.0372 19.7876 33.6683 19.8703C 33.2995 19.9531 32.8856 19.9945 32.4266 19.9945C 31.9676 19.9945 31.5536 19.92 31.1848 19.771C 30.816 19.6138 30.5004 19.3945 30.2381 19.1131C 29.984 18.8234 29.7873 18.4717 29.648 18.0579C 29.5086 17.6359 29.439 17.1559 29.439 16.6179C 29.439 16.1379 29.5086 15.691 29.648 15.2772C 29.7873 14.8634 29.984 14.5076 30.2381 14.2097C 30.4922 13.9034 30.7955 13.6676 31.1479 13.5021C 31.5004 13.3283 31.8938 13.2414 32.3282 13.2414C 32.7872 13.2414 33.1888 13.32 33.5331 13.4772C 33.8773 13.6345 34.1642 13.8497 34.3937 14.1228C 34.6232 14.3959 34.7953 14.7145 34.9101 15.0786C 35.0248 15.4428 35.0822 15.8276 35.0822 16.2331C 35.0822 16.5228 35.0699 16.8041 35.0453 17.0772L 30.5701 17.0772ZM 32.3036 14.2097C 31.82 14.2097 31.4225 14.3752 31.111 14.7062C 30.8078 15.0372 30.6233 15.5255 30.5578 16.171L 34.0617 16.171C 34.0617 15.5421 33.906 15.0579 33.5945 14.7186C 33.2831 14.3793 32.8528 14.2097 32.3036 14.2097Z"/>
<path id="path9_stroke_2x" d="M 0.221304 2.0731L 0.692273 2.24103L 0.693298 2.23809L 0.221304 2.0731ZM 0.836036 0.98069L 0.461255 0.649634L 0.456299 0.655421L 0.836036 0.98069ZM 1.79502 0.26069L 1.5857 -0.193408L 1.5819 -0.191615L 1.79502 0.26069ZM 4.02035 0.198621L 3.81564 0.654794L 3.82323 0.658202L 3.83094 0.661355L 4.02035 0.198621ZM 4.80721 0.670345L 4.48116 1.04942L 5.30721 1.7599L 5.30721 0.670345L 4.80721 0.670345ZM 4.80721 0.148966L 4.80721 -0.351034L 4.30721 -0.351034L 4.30721 0.148966L 4.80721 0.148966ZM 5.81537 0.148966L 6.31537 0.148966L 6.31537 -0.351034L 5.81537 -0.351034L 5.81537 0.148966ZM 6.03667 5.66069L 5.75747 6.07547L 5.77064 6.08434L 5.78434 6.09235L 6.03667 5.66069ZM 6.54075 5.79724L 7.02361 5.92704L 7.19291 5.29724L 6.54075 5.29724L 6.54075 5.79724ZM 6.30715 6.66621L 6.30715 7.16621L 6.69049 7.16621L 6.79001 6.79601L 6.30715 6.66621ZM 4.88098 5.69793L 5.36559 5.57486L 5.10673 4.5555L 4.47959 5.39978L 4.88098 5.69793ZM 4.53673 6.09517L 4.89198 6.44702L 4.53673 6.09517ZM 4.10641 6.43035L 4.36549 6.85799L 4.10641 6.43035ZM 1.74584 6.51724L 1.53809 6.97206L 1.54212 6.97386L 1.74584 6.51724ZM 0.836036 5.8469L 0.460113 6.17666L 0.465406 6.18251L 0.836036 5.8469ZM 0.221304 4.80414L -0.249794 4.97211L -0.24546 4.98339L 0.221304 4.80414ZM 4.00805 5.53655L 3.77235 5.0956L 3.77235 5.0956L 4.00805 5.53655ZM 4.70885 4.9531L 5.10205 5.26196L 5.20885 5.126L 5.20885 4.9531L 4.70885 4.9531ZM 4.70885 1.48966L 5.20885 1.48966L 5.20885 1.23156L 4.99845 1.08206L 4.70885 1.48966ZM 3.97117 1.11724L 3.79412 1.58484L 3.80284 1.58815L 3.81168 1.59112L 3.97117 1.11724ZM 1.68437 1.63862L 1.30114 1.31746L 1.29999 1.31885L 1.68437 1.63862ZM 1.27864 4.34483L 0.803831 4.50158L 0.805194 4.5056L 1.27864 4.34483ZM 1.69666 5.10207L 1.31337 5.42328L 1.31973 5.43059L 1.69666 5.10207ZM 2.32369 5.58621L 2.10459 6.0357L 2.11057 6.03851L 2.32369 5.58621ZM 12.1523 0.186207L 11.9537 0.64511L 11.9584 0.647082L 12.1523 0.186207ZM 12.9146 0.645517L 12.5898 1.02567L 13.4146 1.73033L 13.4146 0.645517L 12.9146 0.645517ZM 12.9146 0.148966L 12.9146 -0.351034L 12.4146 -0.351034L 12.4146 0.148966L 12.9146 0.148966ZM 13.9227 0.148966L 14.4227 0.148966L 14.4227 -0.351034L 13.9227 -0.351034L 13.9227 0.148966ZM 13.1113 8.76414L 12.7737 8.39526L 12.7677 8.40079L 12.7618 8.40652L 13.1113 8.76414ZM 8.9311 8.93793L 8.46995 8.7447L 8.30902 9.12876L 8.65763 9.35651L 8.9311 8.93793ZM 9.33682 7.96965L 9.64901 7.57909L 9.13164 7.16554L 8.87567 7.77642L 9.33682 7.96965ZM 10.0253 8.35448L 10.2151 7.89171L 10.2024 7.88688L 10.0253 8.35448ZM 12.349 8.05655L 12.0122 7.68694L 12.0077 7.69114L 12.349 8.05655ZM 12.8531 5.77241L 13.3531 5.77241L 13.3531 4.3811L 12.4675 5.45415L 12.8531 5.77241ZM 12.14 6.34345L 12.3886 6.77728L 12.3923 6.77511L 12.14 6.34345ZM 9.98844 6.3931L 9.78983 6.85208L 9.79928 6.85594L 9.98844 6.3931ZM 9.07863 5.76L 8.71285 6.10096L 8.71801 6.10634L 9.07863 5.76ZM 8.43931 4.74207L 7.97241 4.92138L 7.97712 4.9328L 8.43931 4.74207ZM 8.43931 2.02345L 8.90609 2.20271L 8.90727 2.19957L 8.43931 2.02345ZM 9.06634 0.955862L 8.6961 0.619734L 8.69105 0.625473L 9.06634 0.955862ZM 10.013 0.26069L 10.2216 0.715196L 10.2301 0.711117L 10.013 0.26069ZM 12.8162 4.86621L 13.2018 5.18448L 13.3162 5.04589L 13.3162 4.86621L 12.8162 4.86621ZM 12.8162 1.48966L 13.3162 1.48966L 13.3162 1.22984L 13.1036 1.0805L 12.8162 1.48966ZM 10.5417 1.12966L 10.7403 1.5886L 10.7479 1.58517L 10.5417 1.12966ZM 9.49665 2.30897L 9.96427 2.48604L 9.96591 2.48159L 9.49665 2.30897ZM 9.49665 4.25793L 9.02738 4.43056L 9.02906 4.435L 9.49665 4.25793ZM 9.92697 4.99035L 9.54996 5.31893L 9.55677 5.32643L 9.92697 4.99035ZM 10.5417 5.44965L 10.3294 5.90242L 10.3355 5.90517L 10.5417 5.44965ZM 21.1515 2.45793L 20.6779 2.61875L 20.6822 2.63055L 21.1515 2.45793ZM 20.7212 1.70069L 20.3379 2.02192L 20.3451 2.03018L 20.7212 1.70069ZM 20.0696 1.19172L 19.8325 1.63195L 19.8412 1.63664L 19.8501 1.64097L 20.0696 1.19172ZM 17.3524 4.28276L 16.8777 4.43951L 16.8803 4.44749L 16.8832 4.45538L 17.3524 4.28276ZM 17.7828 5.05241L 17.3937 5.36642L 17.4 5.37429L 17.4067 5.38191L 17.7828 5.05241ZM 18.4344 5.57379L 18.1973 6.01402L 18.206 6.01871L 18.2149 6.02304L 18.4344 5.57379ZM 20.7581 5.10207L 20.3748 4.78091L 20.3737 4.78229L 20.7581 5.10207ZM 21.1638 4.34483L 20.6902 4.18401L 20.6864 4.19623L 21.1638 4.34483ZM 16.3197 1.97379L 16.7846 2.15795L 16.7858 2.15482L 16.3197 1.97379ZM 16.9836 0.906207L 16.6283 0.554326L 16.6233 0.559547L 16.9836 0.906207ZM 17.9918 0.235862L 17.8062 -0.228442L 17.8028 -0.22706L 17.9918 0.235862ZM 20.4999 0.235862L 20.3109 0.698797L 20.3143 0.700153L 20.4999 0.235862ZM 22.1965 4.75448L 21.7304 4.57345L 21.7286 4.57837L 22.1965 4.75448ZM 20.5122 6.51724L 20.7011 6.98019L 20.7061 6.97812L 20.5122 6.51724ZM 17.9795 6.50483L 17.7821 6.96423L 17.7856 6.9657L 17.9795 6.50483ZM 16.9713 5.80966L 16.6061 6.15125L 16.6111 6.15646L 16.9713 5.80966ZM 16.3074 4.74207L 15.8394 4.91821L 15.8426 4.92622L 16.3074 4.74207ZM 28.1183 1.22897L 27.9227 1.68911L 28.4427 1.91018L 28.5989 1.36714L 28.1183 1.22897ZM 26.8889 1.27862L 26.6841 0.822401L 26.6777 0.825415L 26.8889 1.27862ZM 26.311 1.72552L 25.9331 1.39797L 25.9254 1.40725L 26.311 1.72552ZM 25.9053 2.49517L 25.4317 2.3347L 25.4293 2.34226L 25.9053 2.49517ZM 25.7578 6.60414L 25.7578 7.10414L 26.2578 7.10414L 26.2578 6.60414L 25.7578 6.60414ZM 24.6512 6.60414L 24.1512 6.60414L 24.1512 7.10414L 24.6512 7.10414L 24.6512 6.60414ZM 24.6512 0.148966L 24.6512 -0.351034L 24.1512 -0.351034L 24.1512 0.148966L 24.6512 0.148966ZM 25.7209 0.148966L 26.2209 0.148966L 26.2209 -0.351034L 25.7209 -0.351034L 25.7209 0.148966ZM 25.7209 1.55172L 25.2209 1.55172L 26.1896 1.72581L 25.7209 1.55172ZM 26.4463 0.471724L 26.1297 0.0844796L 26.1206 0.0923011L 26.4463 0.471724ZM 27.0364 0.136552L 27.2115 0.604876L 27.2191 0.602039L 27.2266 0.598957L 27.0364 0.136552ZM 28.1306 0.0248276L 28.0592 0.519706L 28.0781 0.522421L 28.0971 0.523699L 28.1306 0.0248276ZM 28.4503 0.0744827L 28.9308 0.212653L 29.0706 -0.273325L 28.583 -0.407574L 28.4503 0.0744827ZM 29.7184 2.0731L 30.1893 2.24103L 30.1904 2.23809L 29.7184 2.0731ZM 30.3331 0.98069L 29.9583 0.649634L 29.9534 0.655421L 30.3331 0.98069ZM 31.2921 0.26069L 31.0828 -0.193408L 31.079 -0.191615L 31.2921 0.26069ZM 33.5174 0.198621L 33.3127 0.654794L 33.3203 0.658202L 33.328 0.661355L 33.5174 0.198621ZM 34.3043 0.670345L 33.9782 1.04942L 34.8043 1.7599L 34.8043 0.670345L 34.3043 0.670345ZM 34.3043 0.148966L 34.3043 -0.351034L 33.8043 -0.351034L 33.8043 0.148966L 34.3043 0.148966ZM 35.3124 0.148966L 35.8124 0.148966L 35.8124 -0.351034L 35.3124 -0.351034L 35.3124 0.148966ZM 35.5337 5.66069L 35.2545 6.07547L 35.2677 6.08434L 35.2814 6.09235L 35.5337 5.66069ZM 36.0378 5.79724L 36.5207 5.92704L 36.69 5.29724L 36.0378 5.29724L 36.0378 5.79724ZM 35.8042 6.66621L 35.8042 7.16621L 36.1876 7.16621L 36.2871 6.79601L 35.8042 6.66621ZM 34.378 5.69793L 34.8627 5.57486L 34.6038 4.5555L 33.9767 5.39978L 34.378 5.69793ZM 34.0338 6.09517L 34.389 6.44702L 34.0338 6.09517ZM 31.2429 6.51724L 31.0352 6.97206L 31.0392 6.97386L 31.2429 6.51724ZM 30.3331 5.8469L 29.9572 6.17666L 29.9625 6.18251L 30.3331 5.8469ZM 29.7184 4.80414L 29.2473 4.97211L 29.2516 4.98339L 29.7184 4.80414ZM 34.2059 4.9531L 34.5991 5.26196L 34.7059 5.126L 34.7059 4.9531L 34.2059 4.9531ZM 34.2059 1.48966L 34.7059 1.48966L 34.7059 1.23156L 34.4955 1.08206L 34.2059 1.48966ZM 33.4682 1.11724L 33.2912 1.58484L 33.2999 1.58815L 33.3087 1.59112L 33.4682 1.11724ZM 31.1814 1.63862L 30.7982 1.31746L 30.7971 1.31885L 31.1814 1.63862ZM 30.7757 4.34483L 30.3009 4.50158L 30.3023 4.5056L 30.7757 4.34483ZM 31.1937 5.10207L 30.8104 5.42328L 30.8168 5.43059L 31.1937 5.10207ZM 31.8208 5.58621L 31.6017 6.0357L 31.6076 6.03851L 31.8208 5.58621ZM 5.08998 13.3903L 5.08998 12.8903L 4.70664 12.8903L 4.60713 13.2605L 5.08998 13.3903ZM 6.50387 14.2966L 6.02657 14.4455L 6.34926 15.4796L 6.92686 14.5631L 6.50387 14.2966ZM 6.76206 13.9738L 6.4068 13.6219L 6.40074 13.6281L 6.39489 13.6344L 6.76206 13.9738ZM 7.79481 13.3531L 7.9543 13.827L 7.79481 13.3531ZM 9.58982 13.4648L 9.38719 13.9219L 9.39126 13.9237L 9.58982 13.4648ZM 10.4873 14.1103L 10.1162 14.4455L 10.1216 14.4513L 10.4873 14.1103ZM 11.1144 17.9586L 10.6452 17.7855L 10.6424 17.7936L 11.1144 17.9586ZM 10.4996 19.051L 10.1199 18.7258L 10.1192 18.7266L 10.4996 19.051ZM 7.48744 19.771L 7.26674 20.2197L 7.27363 20.2231L 7.28061 20.2262L 7.48744 19.771ZM 6.68829 19.2372L 7.02919 18.8715L 6.18829 18.0877L 6.18829 19.2372L 6.68829 19.2372ZM 6.68829 22.5766L 6.68829 23.0766L 7.18829 23.0766L 7.18829 22.5766L 6.68829 22.5766ZM 5.58177 22.5766L 5.08177 22.5766L 5.08177 23.0766L 5.58177 23.0766L 5.58177 22.5766ZM 5.37276 14.4455L 5.02904 14.8086L 5.04072 14.8197L 5.05308 14.83L 5.37276 14.4455ZM 4.85639 14.2593L 4.37353 14.1295L 4.20422 14.7593L 4.85639 14.7593L 4.85639 14.2593ZM 10.057 15.6L 9.58223 15.7567L 9.58486 15.7647L 9.58776 15.7726L 10.057 15.6ZM 9.639 14.8428L 9.25453 15.1626L 9.26207 15.1713L 9.639 14.8428ZM 9.02427 14.371L 8.81202 14.8238L 8.8181 14.8265L 9.02427 14.371ZM 7.32761 14.4828L 7.5922 14.907L 7.59554 14.9049L 7.32761 14.4828ZM 6.68829 15.0538L 6.28119 14.7635L 6.18829 14.8938L 6.18829 15.0538L 6.68829 15.0538ZM 6.68829 18.2317L 6.18829 18.2317L 6.18829 18.4319L 6.32646 18.5768L 6.68829 18.2317ZM 7.41367 18.7903L 7.17246 19.2283L 7.18032 19.2326L 7.18834 19.2367L 7.41367 18.7903ZM 9.68818 18.3434L 9.29773 18.0311L 9.29628 18.0329L 9.68818 18.3434ZM 10.0816 17.5862L 10.559 17.7348L 10.5602 17.731L 10.0816 17.5862ZM 18.2118 15.6993L 17.7382 15.8601L 17.7426 15.8719L 18.2118 15.6993ZM 17.7815 14.9421L 17.3982 15.2633L 17.4054 15.2716L 17.7815 14.9421ZM 17.1299 14.4331L 16.8928 14.8733L 16.9015 14.878L 16.9104 14.8824L 17.1299 14.4331ZM 14.4128 17.5241L 13.938 17.6809L 13.9406 17.6889L 13.9435 17.6968L 14.4128 17.5241ZM 14.8431 18.2938L 14.454 18.6078L 14.4603 18.6157L 14.467 18.6233L 14.8431 18.2938ZM 15.4947 18.8152L 15.2576 19.2554L 15.2663 19.2601L 15.2752 19.2644L 15.4947 18.8152ZM 17.8184 18.3434L 17.4352 18.0223L 17.434 18.0237L 17.8184 18.3434ZM 18.2241 17.5862L 17.7505 17.4254L 17.7467 17.4376L 18.2241 17.5862ZM 13.38 15.2152L 13.8449 15.3993L 13.8461 15.3962L 13.38 15.2152ZM 14.0439 14.1476L 13.6887 13.7957L 13.6836 13.8009L 14.0439 14.1476ZM 15.0521 13.4772L 14.8665 13.0129L 14.8632 13.0143L 15.0521 13.4772ZM 17.5602 13.4772L 17.3713 13.9402L 17.3746 13.9415L 17.5602 13.4772ZM 19.2569 17.9959L 18.7908 17.8148L 18.7889 17.8197L 19.2569 17.9959ZM 17.5725 19.7586L 17.7615 20.2216L 17.7664 20.2195L 17.5725 19.7586ZM 15.0398 19.7462L 14.8424 20.2056L 14.8459 20.2071L 15.0398 19.7462ZM 14.0316 19.051L 13.6665 19.3926L 13.6715 19.3978L 14.0316 19.051ZM 13.3677 17.9834L 12.8997 18.1596L 12.9029 18.1676L 13.3677 17.9834ZM 23.0148 19.7586L 22.8071 20.2134L 22.8111 20.2152L 23.0148 19.7586ZM 22.105 19.0883L 21.7291 19.418L 21.7344 19.4239L 22.105 19.0883ZM 21.5026 18.0455L 21.0316 18.2134L 21.0327 18.2165L 21.5026 18.0455ZM 21.5026 15.3021L 21.0334 15.129L 21.0316 15.1342L 21.5026 15.3021ZM 22.1173 14.2221L 21.7376 13.8968L 21.7369 13.8976L 22.1173 14.2221ZM 25.2155 13.5021L 24.9669 13.9359L 24.9719 13.9387L 25.2155 13.5021ZM 25.9409 14.0359L 25.5776 14.3794L 26.4409 15.2926L 26.4409 14.0359L 25.9409 14.0359ZM 25.9409 10.6593L 25.9409 10.1593L 25.4409 10.1593L 25.4409 10.6593L 25.9409 10.6593ZM 27.0474 10.6593L 27.5474 10.6593L 27.5474 10.1593L 27.0474 10.1593L 27.0474 10.6593ZM 27.2688 18.9021L 26.9896 19.3169L 27.0027 19.3257L 27.0164 19.3337L 27.2688 18.9021ZM 27.7728 19.0386L 28.2557 19.1684L 28.425 18.5386L 27.7728 18.5386L 27.7728 19.0386ZM 27.5392 19.9076L 27.5392 20.4076L 27.9226 20.4076L 28.0221 20.0374L 27.5392 19.9076ZM 26.1131 18.9641L 26.5953 18.8322L 26.3171 17.8154L 25.7057 18.6742L 26.1131 18.9641ZM 25.3508 19.6841L 25.6225 20.104L 25.63 20.0989L 25.3508 19.6841ZM 25.2401 18.7903L 25.4709 19.234L 25.4758 19.2313L 25.2401 18.7903ZM 25.9409 18.2193L 26.3288 18.5349L 26.4409 18.397L 26.4409 18.2193L 25.9409 18.2193ZM 25.9409 15.0166L 26.4409 15.0166L 26.4409 14.8439L 26.3344 14.708L 25.9409 15.0166ZM 25.2893 14.4703L 25.019 14.891L 25.0264 14.8957L 25.034 14.9002L 25.2893 14.4703ZM 23.5558 14.3959L 23.3304 13.9495L 23.3243 13.9527L 23.5558 14.3959ZM 22.5476 15.6745L 23.025 15.8231L 23.0262 15.8193L 22.5476 15.6745ZM 22.9656 18.331L 22.5752 18.6434L 22.5818 18.6516L 22.5887 18.6596L 22.9656 18.331ZM 23.5927 18.8276L 23.3612 19.2708L 23.3703 19.2755L 23.3795 19.2799L 23.5927 18.8276ZM 30.5701 17.0772L 30.5701 16.5772L 30.0053 16.5772L 30.0737 17.1378L 30.5701 17.0772ZM 33.5577 18.8897L 33.6801 19.3746L 33.6927 19.3711L 33.5577 18.8897ZM 34.406 18.5793L 34.8887 18.4489L 34.7346 17.8784L 34.1974 18.1249L 34.406 18.5793ZM 34.6642 19.5352L 34.8794 19.9865L 35.2556 19.8071L 35.1469 19.4048L 34.6642 19.5352ZM 31.1848 19.771L 30.9887 20.2311L 30.9975 20.2347L 31.1848 19.771ZM 30.2381 19.1131L 29.8622 19.4428L 29.8672 19.4485L 29.8724 19.454L 30.2381 19.1131ZM 29.648 18.0579L 29.1732 18.2147L 29.1741 18.2175L 29.648 18.0579ZM 30.2381 14.2097L 30.6186 14.5341L 30.6229 14.5289L 30.2381 14.2097ZM 31.1479 13.5021L 31.3605 13.9547L 31.369 13.9505L 31.1479 13.5021ZM 35.0453 17.0772L 35.0453 17.5772L 35.5023 17.5772L 35.5433 17.1221L 35.0453 17.0772ZM 31.111 14.7062L 30.7468 14.3636L 30.7423 14.3685L 31.111 14.7062ZM 30.5578 16.171L 30.0603 16.1205L 30.0044 16.671L 30.5578 16.671L 30.5578 16.171ZM 34.0617 16.171L 34.0617 16.671L 34.5617 16.671L 34.5617 16.171L 34.0617 16.171ZM 0.5 3.41379C 0.498328 2.97465 0.557845 2.61207 0.692264 2.24102L -0.249656 1.90519C -0.41031 2.36172 -0.498328 2.89294 -0.5 3.41379L 0.5 3.41379ZM 0.693298 2.23809C 0.824478 1.85693 0.983452 1.57351 1.21577 1.30596L 0.456299 0.655421C 0.164049 1.00029 -0.0867995 1.44514 -0.250691 1.90812L 0.693298 2.23809ZM 1.21077 1.31171C 1.44574 1.04181 1.68418 0.862778 2.00814 0.712994L 1.5819 -0.191615C 1.16818 0.00618797 0.767298 0.307155 0.461299 0.649673L 1.21077 1.31171ZM 2.00433 0.714772C 2.32954 0.561447 2.63402 0.497274 3.02448 0.5L 3.02448 -0.5C 2.52974 -0.497274 2.01457 -0.387653 1.58571 -0.193392L 2.00433 0.714772ZM 3.02448 0.5C 3.34419 0.49758 3.57306 0.542474 3.81564 0.654794L 4.22506 -0.257553C 3.87749 -0.410061 3.44246 -0.49758 3.02448 -0.5L 3.02448 0.5ZM 3.83094 0.661355C 4.09972 0.769828 4.29328 0.885425 4.48116 1.04942L 5.13325 0.291272C 4.87853 0.0745748 4.54751 -0.124311 4.20976 -0.264113L 3.83094 0.661355ZM 5.30721 0.670345L 5.30721 0.148966L 4.30721 0.148966L 4.30721 0.670345L 5.30721 0.670345ZM 4.80721 0.648966L 5.81537 0.648966L 5.81537 -0.351034L 4.80721 -0.351034L 4.80721 0.648966ZM 5.31537 0.148966L 5.31537 5.04L 6.31537 5.04L 6.31537 0.148966L 5.31537 0.148966ZM 5.31537 5.04C 5.31537 5.39526 5.39298 5.83012 5.75747 6.07547L 6.31587 5.24591C 6.34985 5.26877 6.35123 5.28997 6.34165 5.26312C 6.33034 5.23139 6.31537 5.16262 6.31537 5.04L 5.31537 5.04ZM 5.78434 6.09235C 5.99919 6.21288 6.29449 6.29287 6.54075 6.29724L 6.54075 5.29724C 6.42637 5.30161 6.38562 5.29057 6.289 5.22903L 5.78434 6.09235ZM 6.05789 5.66744L 5.8243 6.5364L 6.79001 6.79601L 7.02361 5.92704L 6.05789 5.66744ZM 6.30715 6.16621C 5.97789 6.16621 5.77069 6.0983 5.64132 6.01047C 5.52068 5.92857 5.42255 5.79913 5.36559 5.57486L 4.39636 5.821C 4.50333 6.24225 4.72486 6.59695 5.07961 6.83781C 5.42564 7.07273 5.84956 7.16621 6.30715 7.16621L 6.30715 6.16621ZM 4.47959 5.39978C 4.39272 5.51732 4.30111 5.62292 4.18147 5.74333L 4.89198 6.44702C 5.03463 6.30259 5.17251 6.14337 5.28236 5.99608L 4.47959 5.39978ZM 4.18147 5.74333C 4.08184 5.84539 3.98669 5.91928 3.84734 6.0027L 4.36549 6.85799C 4.55399 6.74279 4.74571 6.59323 4.89198 6.44702L 4.18147 5.74333ZM 3.84734 6.0027C 3.71433 6.08474 3.59167 6.13677 3.41713 6.18507L 3.68918 7.14735C 3.92446 7.07978 4.17063 6.97457 4.36549 6.85799L 3.84734 6.0027ZM 3.41713 6.18507C 3.24809 6.23427 3.09091 6.25412 2.87695 6.2531L 2.87695 7.2531C 3.15477 7.25208 3.44839 7.21401 3.68918 7.14735L 3.41713 6.18507ZM 2.87695 6.2531C 2.52663 6.25574 2.25206 6.19872 1.94956 6.06062L 1.54212 6.97386C 1.94452 7.15025 2.42402 7.25046 2.87695 7.2531L 2.87695 6.2531ZM 1.95358 6.06244C 1.6551 5.92904 1.43361 5.76563 1.20667 5.51129L 0.465406 6.18251C 0.763038 6.50748 1.14808 6.79097 1.5381 6.97204L 1.95358 6.06244ZM 1.21191 5.51717C 0.987023 5.26413 0.82733 4.99232 0.688067 4.62489L -0.24546 4.98339C -0.0732586 5.42699 0.17687 5.85035 0.46016 6.17662L 1.21191 5.51717ZM 0.692264 4.63622C 0.558203 4.26656 0.498444 3.88748 0.5 3.41379L -0.5 3.41379C -0.498444 3.96632 -0.410667 4.51413 -0.249656 4.97206L 0.692264 4.63622ZM 3.12284 6.26C 3.49596 6.25618 3.90975 6.15185 4.24376 5.97751L 3.77235 5.0956C 3.549 5.21919 3.37265 5.26382 3.12284 5.26L 3.12284 6.26ZM 4.24376 5.97751C 4.56599 5.80234 4.87888 5.54159 5.10205 5.26196L 4.31565 4.64425C 4.16179 4.84461 4.00748 4.97284 3.77235 5.0956L 4.24376 5.97751ZM 5.20885 4.9531L 5.20885 1.48966L 4.20885 1.48966L 4.20885 4.9531L 5.20885 4.9531ZM 4.99845 1.08206C 4.74574 0.904238 4.43456 0.746987 4.13066 0.643361L 3.81168 1.59112C 4.04875 1.66956 4.22935 1.76059 4.41925 1.89725L 4.99845 1.08206ZM 4.14822 0.649638C 3.84184 0.535931 3.47423 0.470218 3.13513 0.468276L 3.13513 1.46828C 3.38618 1.46633 3.57593 1.49993 3.79412 1.58484L 4.14822 0.649638ZM 3.13513 0.468276C 2.78741 0.471056 2.40961 0.552487 2.11057 0.689765L 2.53681 1.59437C 2.72955 1.49993 2.89271 1.4655 3.13513 1.46828L 3.13513 0.468276ZM 2.11057 0.689765C 1.8163 0.83176 1.51776 1.06339 1.30114 1.31747L 2.06759 1.95977C 2.21162 1.78351 2.33929 1.6841 2.53681 1.59437L 2.11057 0.689765ZM 1.29999 1.31885C 1.09758 1.56614 0.917522 1.90075 0.803848 2.23912L 1.75344 2.55261C 1.83648 2.29511 1.92691 2.1249 2.06874 1.9584L 1.29999 1.31885ZM 0.803848 2.23912C 0.693924 2.57781 0.6325 2.98339 0.631108 3.37655L 1.63111 3.37655C 1.62971 3.05799 1.66665 2.80977 1.75344 2.55261L 0.803848 2.23912ZM 0.631108 3.37655C 0.632536 3.7619 0.694033 4.16334 0.803848 4.50157L 1.75344 4.18808C 1.66654 3.93046 1.62968 3.68637 1.63111 3.37655L 0.631108 3.37655ZM 0.805194 4.5056C 0.919618 4.83648 1.10394 5.16961 1.31344 5.42322L 2.07988 4.78092C 1.92874 4.60418 1.83438 4.43249 1.75209 4.18406L 0.805194 4.5056ZM 1.31973 5.43059C 1.53408 5.67286 1.8223 5.89516 2.10461 6.03566L 2.54277 5.13676C 2.34969 5.04553 2.21989 4.94507 2.07359 4.77355L 1.31973 5.43059ZM 2.11057 6.03851C 2.40887 6.17554 2.78253 6.25714 3.12284 6.26L 3.12284 5.26C 2.8894 5.26286 2.73029 5.2286 2.53681 5.1339L 2.11057 6.03851ZM 11.1687 0.5C 11.4909 0.497814 11.7187 0.540069 11.9537 0.645086L 12.3509 -0.272673C 12.0121 -0.415931 11.5843 -0.497814 11.1687 -0.5L 11.1687 0.5ZM 11.9584 0.647082C 12.2208 0.75607 12.409 0.86903 12.5898 1.02567L 13.2393 0.265366C 12.9939 0.0578664 12.6739 -0.13538 12.3462 -0.274668L 11.9584 0.647082ZM 13.4146 0.645517L 13.4146 0.148966L 12.4146 0.148966L 12.4146 0.645517L 13.4146 0.645517ZM 12.9146 0.648966L 13.9227 0.648966L 13.9227 -0.351034L 12.9146 -0.351034L 12.9146 0.648966ZM 13.4227 0.148966L 13.4227 6.45517L 14.4227 6.45517L 14.4227 0.148966L 13.4227 0.148966ZM 13.4227 6.45517C 13.4241 6.95551 13.3687 7.32837 13.2442 7.66124L 14.1833 8.00496C 14.3374 7.57646 14.4213 7.0307 14.4227 6.45517L 13.4227 6.45517ZM 13.2442 7.66124C 13.1269 7.99066 12.9918 8.20126 12.7737 8.39526L 13.4488 9.13302C 13.7553 8.84702 14.0218 8.43693 14.1833 8.00496L 13.2442 7.66124ZM 12.7618 8.40652C 12.5529 8.61568 12.3447 8.73851 12.0362 8.83431L 12.3421 9.78638C 12.755 9.65045 13.1615 9.40915 13.4607 9.12176L 12.7618 8.40652ZM 12.0362 8.83431C 11.716 8.93904 11.3911 8.98542 10.9843 8.98414L 10.9843 9.98414C 11.4627 9.98286 11.9411 9.91337 12.3421 9.78638L 12.0362 8.83431ZM 10.9843 8.98414C 10.6297 8.98508 10.3236 8.94741 10.0028 8.86347L 9.75274 9.8317C 10.1369 9.92983 10.5684 9.9832 10.9843 9.98414L 10.9843 8.98414ZM 10.0028 8.86347C 9.68764 8.78363 9.44666 8.67967 9.20457 8.51935L 8.65763 9.35651C 8.9729 9.56033 9.36304 9.72948 9.75274 9.8317L 10.0028 8.86347ZM 9.39225 9.13116L 9.79798 8.16289L 8.87567 7.77642L 8.46995 8.7447L 9.39225 9.13116ZM 9.02463 8.36022C 9.25452 8.54181 9.55196 8.70844 9.84827 8.82209L 10.2024 7.88688C 9.97411 7.80191 9.81255 7.71199 9.64901 7.57909L 9.02463 8.36022ZM 9.83557 8.81708C 10.1504 8.94287 10.5656 9.01413 10.9843 9.01586L 10.9843 8.01586C 10.6489 8.0176 10.4248 7.98126 10.2151 7.89189L 9.83557 8.81708ZM 10.9843 9.01586C 11.6541 9.01586 12.2449 8.83797 12.6903 8.42197L 12.0077 7.69114C 11.7974 7.88755 11.4784 8.01586 10.9843 8.01586L 10.9843 9.01586ZM 12.6858 8.42614C 13.1691 7.98571 13.3531 7.32261 13.3531 6.5669L 12.3531 6.5669C 12.3531 7.18498 12.201 7.51498 12.0123 7.68697L 12.6858 8.42614ZM 13.3531 6.5669L 13.3531 5.77241L 12.3531 5.77241L 12.3531 6.5669L 13.3531 6.5669ZM 12.4675 5.45415C 12.3382 5.61488 12.1683 5.74931 11.8877 5.91179L 12.3923 6.77511C 12.7347 6.57345 13.0401 6.32719 13.2387 6.09068L 12.4675 5.45415ZM 11.8914 5.90963C 11.6526 6.05238 11.4137 6.10755 11.0458 6.10414L 11.0458 7.10414C 11.5303 7.10072 12.0209 6.9821 12.3886 6.77726L 11.8914 5.90963ZM 11.0458 6.10414C 10.7343 6.10656 10.4769 6.05503 10.1776 5.93026L 9.79928 6.85594C 10.1885 7.01256 10.636 7.10171 11.0458 7.10414L 11.0458 6.10414ZM 10.187 5.93422C 9.88748 5.80732 9.66561 5.65287 9.43926 5.41366L 8.71801 6.10634C 9.01623 6.41333 9.4009 6.68096 9.78987 6.85198L 10.187 5.93422ZM 9.44438 5.41907C 9.21271 5.17382 9.04764 4.91016 8.90151 4.55134L 7.97712 4.9328C 8.15884 5.36846 8.41999 5.78342 8.71289 6.10093L 9.44438 5.41907ZM 8.90608 4.56282C 8.76592 4.20484 8.70398 3.83154 8.70572 3.35172L 7.70572 3.35172C 7.70745 3.91467 7.80124 4.46826 7.97255 4.92132L 8.90608 4.56282ZM 8.70572 3.35172C 8.70382 2.91519 8.76542 2.56251 8.90608 2.2027L 7.97255 1.8442C 7.80175 2.29542 7.70761 2.82826 7.70572 3.35172L 8.70572 3.35172ZM 8.90727 2.19957C 9.04624 1.82511 9.20911 1.54693 9.44163 1.28625L 8.69105 0.625473C 8.399 0.960655 8.14385 1.3942 7.97136 1.84733L 8.90727 2.19957ZM 9.43654 1.29195C 9.67157 1.02934 9.90594 0.857147 10.2216 0.715116L 9.80447 -0.193736C 9.39883 -0.00473307 9.00208 0.28652 8.69615 0.619774L 9.43654 1.29195ZM 10.2301 0.711117C 10.5383 0.559026 10.8143 0.496927 11.1687 0.5L 11.1687 -0.5C 10.7036 -0.496927 10.2091 -0.385233 9.79597 -0.189738L 10.2301 0.711117ZM 11.2917 6.11103C 11.6812 6.10722 12.1009 6.00053 12.4238 5.82236L 11.93 4.95281C 11.7283 5.07257 11.5579 5.11485 11.2917 5.11103L 11.2917 6.11103ZM 12.4238 5.82236C 12.7216 5.6512 13.0048 5.41942 13.2018 5.18448L 12.4306 4.54794C 12.2998 4.71024 12.1567 4.82605 11.93 4.95281L 12.4238 5.82236ZM 13.3162 4.86621L 13.3162 1.48966L 12.3162 1.48966L 12.3162 4.86621L 13.3162 4.86621ZM 13.1036 1.0805C 12.8927 0.933226 12.6318 0.788903 12.365 0.671582L 11.9642 1.58773C 12.1891 1.68558 12.3627 1.78126 12.5288 1.89881L 13.1036 1.0805ZM 12.365 0.671582C 12.0647 0.543869 11.6686 0.470307 11.2794 0.468276L 11.2794 1.46828C 11.5786 1.46625 11.7727 1.50027 11.9642 1.58773L 12.365 0.671582ZM 11.2794 0.468276C 10.9715 0.471172 10.622 0.547483 10.3355 0.674142L 10.7479 1.58517C 10.9368 1.49665 11.079 1.46538 11.2794 1.46828L 11.2794 0.468276ZM 10.3431 0.670776C 10.0644 0.794684 9.77343 1.00572 9.55677 1.24046L 10.2972 1.91264C 10.4411 1.75014 10.56 1.66325 10.7403 1.58853L 10.3431 0.670776ZM 9.55677 1.24046C 9.34386 1.47892 9.15123 1.80551 9.0274 2.13634L 9.96591 2.48159C 10.0552 2.23312 10.1494 2.07143 10.2972 1.91264L 9.55677 1.24046ZM 9.02906 2.13189C 8.90713 2.46095 8.83845 2.8769 8.83682 3.28966L 9.83682 3.28966C 9.83519 2.95759 9.87307 2.71974 9.96425 2.48604L 9.02906 2.13189ZM 8.83682 3.28966C 8.83849 3.68637 8.90665 4.09587 9.0274 4.43055L 9.96591 4.08531C 9.87354 3.84068 9.83515 3.60467 9.83682 3.28966L 8.83682 3.28966ZM 9.02906 4.435C 9.15225 4.75526 9.34088 5.07561 9.55003 5.31886L 10.3039 4.66183C 10.1524 4.49129 10.0542 4.32336 9.96425 4.08086L 9.02906 4.435ZM 9.55677 5.32643C 9.771 5.55899 10.0551 5.77092 10.3295 5.90238L 10.7539 4.99693C 10.5693 4.91322 10.4436 4.81895 10.2972 4.65426L 9.55677 5.32643ZM 10.3355 5.90517C 10.6228 6.0321 10.9765 6.10823 11.2917 6.11103L 11.2917 5.11103C 11.0823 5.11384 10.936 5.08239 10.7479 4.99414L 10.3355 5.90517ZM 21.8113 3.37655C 21.8095 3.01078 21.7409 2.6179 21.6208 2.28531L 20.6822 2.63055C 20.7752 2.87728 20.8132 3.09681 20.8113 3.37655L 21.8113 3.37655ZM 21.6249 2.29716C 21.5093 1.96346 21.3172 1.62611 21.0973 1.3712L 20.3451 2.03018C 20.5022 2.20561 20.597 2.37309 20.678 2.6187L 21.6249 2.29716ZM 21.1044 1.37954C 20.8883 1.12593 20.5887 0.89191 20.2891 0.742474L 19.8501 1.64097C 20.0586 1.73981 20.1934 1.8451 20.338 2.02184L 21.1044 1.37954ZM 20.3066 0.751496C 20.0031 0.592609 19.6131 0.496701 19.2581 0.493104L 19.2581 1.4931C 19.4933 1.48951 19.6443 1.52601 19.8325 1.63195L 20.3066 0.751496ZM 19.2581 0.493104C 18.488 0.493104 17.8334 0.755709 17.3627 1.31747L 18.1291 1.95977C 18.3796 1.66084 18.7332 1.4931 19.2581 1.4931L 19.2581 0.493104ZM 17.3627 1.31747C 16.9082 1.85976 16.7049 2.55476 16.7049 3.35172L 17.7049 3.35172C 17.7049 2.72524 17.8623 2.27817 18.1291 1.95977L 17.3627 1.31747ZM 16.7049 3.35172C 16.7065 3.71373 16.7682 4.10271 16.8777 4.43951L 17.8272 4.12601C 17.74 3.86694 17.7034 3.63523 17.7049 3.35172L 16.7049 3.35172ZM 16.8832 4.45538C 17.0048 4.78137 17.1882 5.10897 17.3937 5.36642L 18.1719 4.73841C 18.0167 4.54896 17.9132 4.36346 17.8217 4.11014L 16.8832 4.45538ZM 17.4067 5.38191C 17.6257 5.62894 17.9126 5.8584 18.1973 6.01402L 18.6714 5.13357C 18.4643 5.02436 18.3169 4.90623 18.1588 4.72292L 17.4067 5.38191ZM 18.2149 6.02304C 18.5225 6.16958 18.9076 6.25691 19.2581 6.26L 19.2581 5.26C 19.0185 5.26309 18.8544 5.22628 18.6539 5.12454L 18.2149 6.02304ZM 19.2581 6.26C 19.6275 6.25752 20.0189 6.17769 20.3262 6.04114L 19.9113 5.13127C 19.7104 5.22645 19.528 5.26248 19.2581 5.26L 19.2581 6.26ZM 20.3262 6.04114C 20.629 5.89972 20.9313 5.67052 21.1424 5.42184L 20.3737 4.78229C 20.2406 4.94741 20.1166 5.04097 19.9113 5.13127L 20.3262 6.04114ZM 21.1413 5.42322C 21.3526 5.16702 21.5348 4.82772 21.6412 4.49343L 20.6864 4.19623C 20.6125 4.44124 20.5242 4.60677 20.3748 4.78092L 21.1413 5.42322ZM 21.6372 4.5056C 21.7479 4.17367 21.8099 3.77018 21.8113 3.37655L 20.8113 3.37655C 20.8128 3.69465 20.7764 3.93667 20.6903 4.18406L 21.6372 4.5056ZM 16.5738 3.37655C 16.5719 2.8985 16.6369 2.52353 16.7846 2.15795L 15.8548 1.78964C 15.6746 2.25164 15.5757 2.81184 15.5738 3.37655L 16.5738 3.37655ZM 16.7858 2.15482C 16.9309 1.77522 17.0996 1.5029 17.3439 1.25287L 16.6233 0.559547C 16.3103 0.888823 16.0364 1.32823 15.8536 1.79277L 16.7858 2.15482ZM 17.3389 1.25805C 17.5882 1.00265 17.8406 0.834937 18.1807 0.698784L 17.8028 -0.22706C 17.3725 -0.0487295 16.9528 0.230453 16.6284 0.554363L 17.3389 1.25805ZM 18.1773 0.700153C 18.5244 0.558846 18.8533 0.497882 19.2581 0.5L 19.2581 -0.5C 18.7613 -0.497882 18.246 -0.401604 17.8062 -0.228429L 18.1773 0.700153ZM 19.2581 0.5C 19.6539 0.4978 19.9728 0.558082 20.3109 0.698784L 20.6888 -0.22706C 20.2565 -0.40084 19.7476 -0.4978 19.2581 -0.5L 19.2581 0.5ZM 20.3143 0.700153C 20.6621 0.836435 20.9168 1.00353 21.1651 1.25805L 21.8756 0.554363C 21.5501 0.229569 21.1245 -0.0502283 20.6854 -0.228429L 20.3143 0.700153ZM 21.1651 1.25805C 21.4169 1.50841 21.5876 1.77561 21.7317 2.14554L 22.6614 1.77722C 22.4776 1.31956 22.1975 0.883319 21.8756 0.554363L 21.1651 1.25805ZM 21.7317 2.14554C 21.8794 2.51149 21.9443 2.88233 21.9424 3.35172L 22.9424 3.35172C 22.9405 2.79491 22.8415 2.23886 22.6614 1.77722L 21.7317 2.14554ZM 21.9424 3.35172C 21.9443 3.8215 21.8788 4.19809 21.7305 4.57346L 22.6626 4.93551C 22.8421 4.46674 22.9406 3.90816 22.9424 3.35172L 21.9424 3.35172ZM 21.7286 4.57837C 21.5924 4.94713 21.4249 5.21702 21.1725 5.47526L 21.8928 6.16888C 22.2141 5.83126 22.4892 5.38942 22.6645 4.9306L 21.7286 4.57837ZM 21.1725 5.47526C 20.9232 5.73795 20.6667 5.91248 20.3183 6.05637L 20.7061 6.97812C 21.1445 6.79097 21.5683 6.50205 21.8928 6.16888L 21.1725 5.47526ZM 20.3232 6.05432C 19.9855 6.19489 19.6625 6.25526 19.2581 6.2531L 19.2581 7.2531C 19.7553 7.25095 20.2683 7.15407 20.7011 6.98016L 20.3232 6.05432ZM 19.2581 6.2531C 18.847 6.2554 18.5183 6.19194 18.1734 6.04395L 17.7856 6.9657C 18.2275 7.14875 18.7512 7.25081 19.2581 7.2531L 19.2581 6.2531ZM 18.1769 6.04544C 17.836 5.90166 17.5818 5.72645 17.3315 5.46285L 16.6111 6.15646C 16.9346 6.48872 17.3525 6.77696 17.7821 6.96422L 18.1769 6.04544ZM 17.3365 5.4681C 17.0894 5.20747 16.9178 4.93086 16.7723 4.55791L 15.8426 4.92622C 16.0248 5.38086 16.2959 5.81598 16.6062 6.15121L 17.3365 5.4681ZM 16.7754 4.56595C 16.6343 4.19747 16.572 3.8308 16.5738 3.37655L 15.5738 3.37655C 15.5756 3.91541 15.6691 4.45908 15.8394 4.91819L 16.7754 4.56595ZM 28.314 0.768822C 28.1055 0.683608 27.8225 0.631626 27.5651 0.629655L 27.5651 1.62966C 27.7338 1.62768 27.8197 1.64191 27.9227 1.68911L 28.314 0.768822ZM 27.5651 0.629655C 27.2815 0.632591 26.9532 0.704587 26.6842 0.822447L 27.0936 1.73479C 27.2671 1.65403 27.3897 1.62672 27.5651 1.62966L 27.5651 0.629655ZM 26.6777 0.825415C 26.4156 0.950938 26.1396 1.16363 25.9332 1.39807L 26.6889 2.05297C 26.8267 1.89017 26.9359 1.80492 27.1001 1.73183L 26.6777 0.825415ZM 25.9254 1.40725C 25.7309 1.64697 25.5525 1.98326 25.4317 2.33472L 26.3789 2.65562C 26.4712 2.37812 26.5632 2.20131 26.6966 2.04379L 25.9254 1.40725ZM 25.4293 2.34226C 25.3193 2.69103 25.2589 3.13198 25.2578 3.58759L 26.2578 3.58759C 26.2566 3.19905 26.2946 2.91172 26.3813 2.64808L 25.4293 2.34226ZM 25.2578 3.58759L 25.2578 6.60414L 26.2578 6.60414L 26.2578 3.58759L 25.2578 3.58759ZM 25.7578 6.10414L 24.6512 6.10414L 24.6512 7.10414L 25.7578 7.10414L 25.7578 6.10414ZM 25.1512 6.60414L 25.1512 0.148966L 24.1512 0.148966L 24.1512 6.60414L 25.1512 6.60414ZM 24.6512 0.648966L 25.7209 0.648966L 25.7209 -0.351034L 24.6512 -0.351034L 24.6512 0.648966ZM 25.2209 0.148966L 25.2209 1.55172L 26.2209 1.55172L 26.2209 0.148966L 25.2209 0.148966ZM 26.1896 1.72581C 26.2528 1.55329 26.3267 1.40744 26.436 1.23956L 25.5959 0.696989C 25.4593 0.909806 25.3365 1.15292 25.2522 1.37764L 26.1896 1.72581ZM 26.436 1.23956C 26.5388 1.07804 26.635 0.966817 26.7719 0.851147L 26.1206 0.0923011C 25.9296 0.258011 25.739 0.477818 25.5959 0.696989L 26.436 1.23956ZM 26.7627 0.858857C 26.9011 0.743453 27.0268 0.672282 27.2115 0.604876L 26.8613 -0.331773C 26.6034 -0.233662 26.3357 -0.0813837 26.1298 0.0845913L 26.7627 0.858857ZM 27.2266 0.598957C 27.3991 0.525116 27.5493 0.497908 27.7741 0.5L 27.7741 -0.5C 27.4579 -0.497908 27.1163 -0.434081 26.8462 -0.325854L 27.2266 0.598957ZM 27.7741 0.5C 27.8797 0.499698 27.9628 0.505449 28.0592 0.519706L 28.202 -0.470051C 28.069 -0.488897 27.9144 -0.499698 27.7741 -0.5L 27.7741 0.5ZM 28.0971 0.523699C 28.1984 0.530045 28.2552 0.538523 28.3175 0.55654L 28.583 -0.407574C 28.465 -0.439213 28.3088 -0.463838 28.1642 -0.474044L 28.0971 0.523699ZM 27.9698 -0.0636878L 27.6378 1.0908L 28.5989 1.36714L 28.9308 0.212653L 27.9698 -0.0636878ZM 29.9971 3.41379C 29.9954 2.97465 30.0549 2.61207 30.1893 2.24102L 29.2474 1.90519C 29.0868 2.36172 28.9987 2.89294 28.9971 3.41379L 29.9971 3.41379ZM 30.1904 2.23809C 30.3215 1.85693 30.4805 1.57351 30.7128 1.30596L 29.9534 0.655421C 29.6611 1.00029 29.4103 1.44514 29.2464 1.90812L 30.1904 2.23809ZM 30.7078 1.31171C 30.9428 1.04181 31.1812 0.862778 31.5052 0.712994L 31.079 -0.191615C 30.6652 0.00618759 30.2644 0.307155 29.9584 0.649673L 30.7078 1.31171ZM 31.5014 0.714772C 31.8266 0.561447 32.1311 0.497274 32.5215 0.5L 32.5215 -0.5C 32.0268 -0.497274 31.5116 -0.387653 31.0828 -0.193392L 31.5014 0.714772ZM 32.5215 0.5C 32.8413 0.49758 33.0701 0.542474 33.3127 0.654794L 33.7221 -0.257553C 33.3746 -0.410061 32.9395 -0.49758 32.5215 -0.5L 32.5215 0.5ZM 33.328 0.661355C 33.5968 0.769828 33.7903 0.885425 33.9782 1.04942L 34.6303 0.291272C 34.3756 0.0745752 34.0446 -0.124311 33.7068 -0.264113L 33.328 0.661355ZM 34.8043 0.670345L 34.8043 0.148966L 33.8043 0.148966L 33.8043 0.670345L 34.8043 0.670345ZM 34.3043 0.648966L 35.3124 0.648966L 35.3124 -0.351034L 34.3043 -0.351034L 34.3043 0.648966ZM 34.8124 0.148966L 34.8124 5.04L 35.8124 5.04L 35.8124 0.148966L 34.8124 0.148966ZM 34.8124 5.04C 34.8124 5.39526 34.89 5.83012 35.2545 6.07547L 35.8129 5.24591C 35.8469 5.26877 35.8483 5.28997 35.8387 5.26312C 35.8274 5.23139 35.8124 5.16262 35.8124 5.04L 34.8124 5.04ZM 35.2814 6.09235C 35.4962 6.21288 35.7915 6.29287 36.0378 6.29724L 36.0378 5.29724C 35.9234 5.30161 35.8827 5.29057 35.7861 5.22903L 35.2814 6.09235ZM 35.555 5.66744L 35.3214 6.5364L 36.2871 6.79601L 36.5207 5.92704L 35.555 5.66744ZM 35.8042 6.16621C 35.475 6.16621 35.2678 6.0983 35.1384 6.01047C 35.0177 5.92857 34.9196 5.79913 34.8627 5.57486L 33.8934 5.821C 34.0004 6.24225 34.2219 6.59695 34.5767 6.83781C 34.9227 7.07273 35.3466 7.16621 35.8042 7.16621L 35.8042 6.16621ZM 33.9767 5.39978C 33.8898 5.51732 33.7982 5.62292 33.6785 5.74333L 34.389 6.44702C 34.5317 6.3026 34.6696 6.14337 34.7794 5.99608L 33.9767 5.39978ZM 33.6785 5.74333C 33.5789 5.84539 33.4838 5.91928 33.3444 6.0027L 33.8626 6.85799C 34.0511 6.74279 34.2428 6.59323 34.389 6.44702L 33.6785 5.74333ZM 33.3444 6.0027C 33.2114 6.08474 33.0887 6.13677 32.9142 6.18507L 33.1862 7.14735C 33.4215 7.07978 33.6677 6.97457 33.8626 6.85799L 33.3444 6.0027ZM 32.9142 6.18507C 32.7452 6.23427 32.588 6.25412 32.374 6.2531L 32.374 7.2531C 32.6518 7.25208 32.9455 7.21401 33.1862 7.14735L 32.9142 6.18507ZM 32.374 6.2531C 32.0237 6.25574 31.7491 6.19872 31.4466 6.06062L 31.0392 6.97386C 31.4416 7.15025 31.9211 7.25046 32.374 7.2531L 32.374 6.2531ZM 31.4506 6.06244C 31.1522 5.92904 30.9307 5.76563 30.7037 5.51129L 29.9625 6.18251C 30.2601 6.50748 30.6451 6.79097 31.0352 6.97204L 31.4506 6.06244ZM 30.709 5.51717C 30.4841 5.26413 30.3244 4.99232 30.1851 4.62489L 29.2516 4.98339C 29.4238 5.42699 29.6739 5.85035 29.9572 6.17662L 30.709 5.51717ZM 30.1893 4.63622C 30.0553 4.26656 29.9955 3.88748 29.9971 3.41379L 28.9971 3.41379C 28.9986 3.96632 29.0864 4.51413 29.2474 4.97206L 30.1893 4.63622ZM 32.6199 6.26C 32.993 6.25618 33.4068 6.15185 33.7408 5.97751L 33.2694 5.0956C 33.0461 5.21919 32.8697 5.26382 32.6199 5.26L 32.6199 6.26ZM 33.7408 5.97751C 34.0631 5.80234 34.3759 5.54159 34.5991 5.26196L 33.8127 4.64425C 33.6588 4.84461 33.5045 4.97284 33.2694 5.0956L 33.7408 5.97751ZM 34.7059 4.9531L 34.7059 1.48966L 33.7059 1.48966L 33.7059 4.9531L 34.7059 4.9531ZM 34.4955 1.08206C 34.2428 0.904239 33.9316 0.746987 33.6277 0.643361L 33.3087 1.59112C 33.5458 1.66956 33.7264 1.76059 33.9163 1.89725L 34.4955 1.08206ZM 33.6453 0.649638C 33.3389 0.535931 32.9713 0.470218 32.6322 0.468276L 32.6322 1.46828C 32.8832 1.46633 33.073 1.49993 33.2912 1.58484L 33.6453 0.649638ZM 32.6322 0.468276C 32.2845 0.471056 31.9067 0.552487 31.6076 0.689765L 32.0339 1.59437C 32.2266 1.49993 32.3898 1.4655 32.6322 1.46828L 32.6322 0.468276ZM 31.6076 0.689765C 31.3134 0.83176 31.0148 1.06339 30.7982 1.31747L 31.5647 1.95977C 31.7087 1.78351 31.8364 1.6841 32.0339 1.59437L 31.6076 0.689765ZM 30.7971 1.31885C 30.5946 1.56614 30.4146 1.90075 30.3009 2.23912L 31.2505 2.55261C 31.3335 2.29511 31.424 2.1249 31.5658 1.9584L 30.7971 1.31885ZM 30.3009 2.23912C 30.191 2.57781 30.1296 2.98339 30.1282 3.37655L 31.1282 3.37655C 31.1268 3.05799 31.1637 2.80977 31.2505 2.55261L 30.3009 2.23912ZM 30.1282 3.37655C 30.1296 3.7619 30.1911 4.16334 30.3009 4.50157L 31.2505 4.18808C 31.1636 3.93046 31.1267 3.68637 31.1282 3.37655L 30.1282 3.37655ZM 30.3023 4.5056C 30.4167 4.83648 30.601 5.16961 30.8105 5.42322L 31.5769 4.78092C 31.4258 4.60418 31.3314 4.43249 31.2492 4.18406L 30.3023 4.5056ZM 30.8168 5.43059C 31.0311 5.67286 31.3194 5.89516 31.6017 6.03566L 32.0398 5.13676C 31.8468 5.04553 31.717 4.94508 31.5707 4.77355L 30.8168 5.43059ZM 31.6076 6.03851C 31.9059 6.17554 32.2796 6.25714 32.6199 6.26L 32.6199 5.26C 32.3865 5.26286 32.2274 5.2286 32.0339 5.1339L 31.6076 6.03851ZM 5.08998 13.8903C 5.40366 13.8903 5.60752 13.9535 5.7392 14.0379C 5.90175 14.1318 5.9629 14.2191 6.02657 14.4455L 6.98117 14.1476C 6.85632 13.7699 6.58756 13.404 6.27881 13.1959C 5.9392 12.9783 5.53038 12.8903 5.08998 12.8903L 5.08998 13.8903ZM 6.92686 14.5631C 6.96861 14.4954 7.02635 14.424 7.12922 14.3132L 6.39489 13.6344C 6.26826 13.7719 6.15388 13.9156 6.08087 14.03L 6.92686 14.5631ZM 7.11731 14.3256C 7.21768 14.2229 7.31986 14.143 7.46968 14.0502L 6.93965 13.2022C 6.74521 13.3246 6.55232 13.4764 6.4068 13.6219L 7.11731 14.3256ZM 7.46968 14.0502C 7.61476 13.9584 7.75852 13.8921 7.9543 13.827L 7.63531 12.8792C 7.38849 12.9631 7.13882 13.0789 6.93965 13.2022L 7.46968 14.0502ZM 7.9543 13.827C 8.13374 13.7646 8.29954 13.74 8.53248 13.7414L 8.53248 12.7414C 8.22446 12.7428 7.89848 12.7927 7.63531 12.8792L 7.9543 13.827ZM 8.53248 13.7414C 8.84935 13.7387 9.09993 13.7916 9.3872 13.9219L 9.79245 13.0077C 9.40761 12.8401 8.9533 12.7441 8.53248 12.7414L 8.53248 13.7414ZM 9.39126 13.9237C 9.68739 14.0487 9.89984 14.2016 10.1162 14.4454L 10.8584 13.7752C 10.5666 13.4564 10.1808 13.1789 9.78839 13.0059L 9.39126 13.9237ZM 10.1216 14.4513C 10.3503 14.6927 10.5086 14.9571 10.6464 15.3292L 11.5823 14.977C 11.4087 14.5215 11.1489 14.0908 10.8531 13.7694L 10.1216 14.4513ZM 10.6464 15.3292C 10.7872 15.6966 10.8497 16.0757 10.848 16.5559L 11.848 16.5559C 11.8463 15.9933 11.753 15.4372 11.5823 14.977L 10.6464 15.3292ZM 10.848 16.5559C 10.8497 17.0278 10.7868 17.4084 10.6453 17.7855L 11.5834 18.1317C 11.7534 17.6647 11.8463 17.1102 11.848 16.5559L 10.848 16.5559ZM 10.6424 17.7936C 10.5112 18.1748 10.3522 18.4582 10.1199 18.7258L 10.8794 19.3763C 11.1716 19.0314 11.4225 18.5866 11.5864 18.1236L 10.6424 17.7936ZM 10.1192 18.7266C 9.8992 18.9883 9.68416 19.1575 9.39349 19.2977L 9.83534 20.1948C 10.2168 20.0039 10.5919 19.7096 10.8801 19.3755L 10.1192 18.7266ZM 9.39349 19.2977C 9.10966 19.441 8.86838 19.4978 8.55707 19.4945L 8.55707 20.4945C 8.98344 20.4912 9.44706 20.3824 9.83534 20.1948L 9.39349 19.2977ZM 8.55707 19.4945C 8.22324 19.4971 7.97078 19.4448 7.69427 19.3158L 7.28061 20.2262C 7.65981 20.3952 8.12045 20.4918 8.55707 20.4945L 8.55707 19.4945ZM 7.70813 19.3224C 7.41753 19.1806 7.21171 19.0438 7.02919 18.8715L 6.34738 19.603C 6.59107 19.8279 6.91803 20.047 7.26674 20.2197L 7.70813 19.3224ZM 6.18829 19.2372L 6.18829 22.5766L 7.18829 22.5766L 7.18829 19.2372L 6.18829 19.2372ZM 6.68829 22.0766L 5.58177 22.0766L 5.58177 23.0766L 6.68829 23.0766L 6.68829 22.0766ZM 6.08177 22.5766L 6.08177 15.0414L 5.08177 15.0414L 5.08177 22.5766L 6.08177 22.5766ZM 6.08177 15.0414C 6.08177 14.6939 5.99705 14.3144 5.69244 14.0611L 5.05308 14.83C 5.02715 14.8084 5.08177 14.8261 5.08177 15.0414L 6.08177 15.0414ZM 5.71648 14.0824C 5.47605 13.8548 5.17278 13.7593 4.85639 13.7593L 4.85639 14.7593C 4.9662 14.7593 5.00718 14.7879 5.02904 14.8086L 5.71648 14.0824ZM 5.33924 14.3891L 5.57284 13.5201L 4.60713 13.2605L 4.37353 14.1295L 5.33924 14.3891ZM 10.7169 16.5931C 10.7153 16.1808 10.6473 15.763 10.5263 15.4274L 9.58776 15.7726C 9.67987 16.0163 9.71844 16.2605 9.71685 16.5931L 10.7169 16.5931ZM 10.5318 15.4433C 10.4169 15.102 10.229 14.763 10.0159 14.5142L 9.26207 15.1713C 9.40968 15.3363 9.50043 15.5021 9.58223 15.7567L 10.5318 15.4433ZM 10.0234 14.523C 9.8134 14.2754 9.51894 14.0497 9.23044 13.9155L 8.8181 14.8265C 9.00499 14.9075 9.12036 14.9963 9.25463 15.1625L 10.0234 14.523ZM 9.2365 13.9183C 8.95531 13.7899 8.60262 13.7126 8.28659 13.7097L 8.28659 14.7097C 8.49514 14.7068 8.63423 14.737 8.81204 14.8238L 9.2365 13.9183ZM 8.28659 13.7097C 7.86501 13.7145 7.40993 13.8444 7.05968 14.0606L 7.59554 14.9049C 7.81904 14.7569 8.00328 14.7049 8.28659 14.7097L 8.28659 13.7097ZM 7.06303 14.0585C 6.749 14.2565 6.46344 14.5132 6.28119 14.7635L 7.09538 15.3441C 7.20821 15.1806 7.34886 15.0566 7.59219 14.907L 7.06303 14.0585ZM 6.18829 15.0538L 6.18829 18.2317L 7.18829 18.2317L 7.18829 15.0538L 6.18829 15.0538ZM 6.32646 18.5768C 6.56697 18.8269 6.86925 19.0597 7.17246 19.2283L 7.65488 18.3524C 7.41713 18.2231 7.23582 18.0835 7.05011 17.8866L 6.32646 18.5768ZM 7.18834 19.2367C 7.52266 19.4014 7.94359 19.4982 8.33577 19.5014L 8.33577 18.5014C 8.05584 18.5045 7.86204 18.4607 7.63901 18.344L 7.18834 19.2367ZM 8.33577 19.5014C 8.67037 19.4982 9.03803 19.4138 9.32337 19.2739L 8.8727 18.3812C 8.69905 18.4731 8.55853 18.5045 8.33577 18.5014L 8.33577 19.5014ZM 9.32337 19.2739C 9.60041 19.1307 9.8808 18.9009 10.0801 18.654L 9.29628 18.0329C 9.16771 18.1998 9.05466 18.2927 8.8727 18.3812L 9.32337 19.2739ZM 10.0786 18.6558C 10.2794 18.401 10.4538 18.0662 10.559 17.7348L 9.6042 17.4376C 9.52908 17.6856 9.44124 17.8555 9.29774 18.0311L 10.0786 18.6558ZM 10.5602 17.731C 10.6603 17.3948 10.7157 16.9911 10.7169 16.5931L 9.71685 16.5931C 9.718 16.9234 9.68324 17.1818 9.60304 17.4414L 10.5602 17.731ZM 18.8717 16.6179C 18.8698 16.2522 18.8013 15.8593 18.6811 15.5267L 17.7426 15.8719C 17.8355 16.1187 17.8735 16.3382 17.8717 16.6179L 18.8717 16.6179ZM 18.6853 15.5385C 18.5696 15.2048 18.3775 14.8675 18.1576 14.6126L 17.4054 15.2716C 17.5625 15.447 17.6573 15.6145 17.7384 15.8601L 18.6853 15.5385ZM 18.1647 14.6209C 17.9486 14.3673 17.6491 14.1333 17.3494 13.9839L 16.9104 14.8824C 17.1189 14.9812 17.2538 15.0865 17.3983 15.2632L 18.1647 14.6209ZM 17.367 13.9929C 17.0634 13.834 16.6734 13.7381 16.3185 13.7345L 16.3185 14.7345C 16.5537 14.7309 16.7046 14.7674 16.8928 14.8733L 17.367 13.9929ZM 16.3185 13.7345C 15.5483 13.7345 14.8938 13.9971 14.423 14.5588L 15.1894 15.2012C 15.4399 14.9022 15.7936 14.7345 16.3185 14.7345L 16.3185 13.7345ZM 14.423 14.5588C 13.9685 15.1011 13.7652 15.7961 13.7652 16.5931L 14.7652 16.5931C 14.7652 15.9666 14.9226 15.5196 15.1894 15.2012L 14.423 14.5588ZM 13.7652 16.5931C 13.7668 16.9551 13.8285 17.3441 13.938 17.6809L 14.8876 17.3674C 14.8003 17.1083 14.7637 16.8766 14.7652 16.5931L 13.7652 16.5931ZM 13.9435 17.6968C 14.0651 18.0228 14.2485 18.3504 14.454 18.6078L 15.2322 17.9798C 15.077 17.7903 14.9736 17.6048 14.882 17.3515L 13.9435 17.6968ZM 14.467 18.6233C 14.686 18.8703 14.973 19.0998 15.2576 19.2554L 15.7318 18.3749C 15.5247 18.2657 15.3772 18.1476 15.2192 17.9643L 14.467 18.6233ZM 15.2752 19.2644C 15.5828 19.411 15.9679 19.4983 16.3185 19.5014L 16.3185 18.5014C 16.0788 18.5045 15.9148 18.4677 15.7142 18.3659L 15.2752 19.2644ZM 16.3185 19.5014C 16.6878 19.4989 17.0792 19.4191 17.3865 19.2825L 16.9716 18.3727C 16.7708 18.4678 16.5884 18.5039 16.3185 18.5014L 16.3185 19.5014ZM 17.3865 19.2825C 17.6894 19.1411 17.9916 18.9119 18.2028 18.6632L 17.434 18.0237C 17.3009 18.1888 17.177 18.2824 16.9716 18.3727L 17.3865 19.2825ZM 18.2016 18.6646C 18.4129 18.4084 18.5951 18.0691 18.7015 17.7348L 17.7467 17.4376C 17.6728 17.6826 17.5846 17.8482 17.4352 18.0223L 18.2016 18.6646ZM 18.6976 17.747C 18.8082 17.4151 18.8702 17.0116 18.8717 16.6179L 17.8717 16.6179C 17.8731 16.936 17.8367 17.1781 17.7507 17.4254L 18.6976 17.747ZM 13.6341 16.6179C 13.6323 16.1399 13.6973 15.7649 13.8449 15.3993L 12.9152 15.031C 12.7349 15.493 12.636 16.0532 12.6341 16.6179L 13.6341 16.6179ZM 13.8461 15.3962C 13.9912 15.0166 14.1599 14.7443 14.4043 14.4942L 13.6836 13.8009C 13.3706 14.1302 13.0967 14.5696 12.914 15.0342L 13.8461 15.3962ZM 14.3992 14.4994C 14.6485 14.244 14.9009 14.0763 15.2411 13.9402L 14.8632 13.0143C 14.4328 13.1927 14.0131 13.4718 13.6887 13.7957L 14.3992 14.4994ZM 15.2377 13.9415C 15.5848 13.8002 15.9136 13.7393 16.3185 13.7414L 16.3185 12.7414C 15.8217 12.7435 15.3063 12.8398 14.8665 13.013L 15.2377 13.9415ZM 16.3185 13.7414C 16.7142 13.7392 17.0331 13.7995 17.3713 13.9402L 17.7492 13.0143C 17.3168 12.8405 16.8079 12.7436 16.3185 12.7414L 16.3185 13.7414ZM 17.3746 13.9415C 17.7224 14.0778 17.9772 14.2449 18.2254 14.4994L 18.9359 13.7957C 18.6104 13.4709 18.1848 13.1912 17.7458 13.013L 17.3746 13.9415ZM 18.2254 14.4994C 18.4773 14.7498 18.648 15.017 18.792 15.3869L 19.7217 15.0186C 19.5379 14.5609 19.2578 14.1247 18.9359 13.7957L 18.2254 14.4994ZM 18.792 15.3869C 18.9397 15.7529 19.0047 16.1237 19.0028 16.5931L 20.0028 16.5931C 20.0009 16.0363 19.9019 15.4802 19.7217 15.0186L 18.792 15.3869ZM 19.0028 16.5931C 19.0046 17.0629 18.9392 17.4395 18.7908 17.8148L 19.723 18.1769C 19.9024 17.7081 20.0009 17.1495 20.0028 16.5931L 19.0028 16.5931ZM 18.7889 17.8197C 18.6527 18.1885 18.4853 18.4584 18.2328 18.7166L 18.9531 19.4103C 19.2744 19.0726 19.5496 18.6308 19.7248 18.172L 18.7889 17.8197ZM 18.2328 18.7166C 17.9835 18.9793 17.727 19.1539 17.3786 19.2977L 17.7664 20.2195C 18.2048 20.0323 18.6286 19.7434 18.9531 19.4103L 18.2328 18.7166ZM 17.3836 19.2957C 17.0459 19.4363 16.7228 19.4966 16.3185 19.4945L 16.3185 20.4945C 16.8157 20.4923 17.3287 20.3955 17.7615 20.2215L 17.3836 19.2957ZM 16.3185 19.4945C 15.9073 19.4968 15.5786 19.4333 15.2337 19.2853L 14.8459 20.2071C 15.2879 20.3901 15.8116 20.4922 16.3185 20.4945L 16.3185 19.4945ZM 15.2372 19.2868C 14.8964 19.143 14.6422 18.9678 14.3918 18.7042L 13.6715 19.3978C 13.9949 19.7301 14.4128 20.0183 14.8424 20.2056L 15.2372 19.2868ZM 14.3968 18.7095C 14.1497 18.4488 13.9782 18.1722 13.8326 17.7993L 12.9029 18.1676C 13.0852 18.6222 13.3562 19.0574 13.6665 19.3926L 14.3968 18.7095ZM 13.8357 17.8073C 13.6946 17.4388 13.6323 17.0722 13.6341 16.6179L 12.6341 16.6179C 12.6359 17.1568 12.7294 17.7005 12.8998 18.1596L 13.8357 17.8073ZM 24.1336 19.4945C 23.792 19.4972 23.5215 19.4403 23.2185 19.302L 22.8111 20.2152C 23.213 20.3915 23.6883 20.4918 24.1336 20.4945L 24.1336 19.4945ZM 23.2225 19.3038C 22.9241 19.1704 22.7026 19.007 22.4756 18.7527L 21.7344 19.4239C 22.032 19.7489 22.417 20.0323 22.8071 20.2134L 23.2225 19.3038ZM 22.4809 18.7586C 22.2573 18.5073 22.1032 18.2397 21.9724 17.8746L 21.0327 18.2165C 21.197 18.6624 21.4446 19.0899 21.7291 19.418L 22.4809 18.7586ZM 21.9735 17.8776C 21.8395 17.5079 21.7797 17.1289 21.7813 16.6552L 20.7813 16.6552C 20.7828 17.2077 20.8706 17.7555 21.0316 18.2134L 21.9735 17.8776ZM 21.7813 16.6552C 21.7796 16.2074 21.8392 15.8407 21.9735 15.47L 21.0316 15.1342C 20.8709 15.591 20.7829 16.1264 20.7813 16.6552L 21.7813 16.6552ZM 21.9717 15.4752C 22.1116 15.0909 22.2725 14.8072 22.4977 14.5465L 21.7369 13.8976C 21.4539 14.2328 21.205 14.6691 21.0335 15.129L 21.9717 15.4752ZM 22.497 14.5473C 22.7262 14.2762 22.952 14.0972 23.2524 13.9484L 22.8018 13.0557C 22.4137 13.2545 22.033 13.5555 21.7376 13.8968L 22.497 14.5473ZM 23.2524 13.9484C 23.5431 13.7978 23.7944 13.738 24.1213 13.7414L 24.1213 12.7414C 23.6778 12.7448 23.1996 12.8587 22.8018 13.0557L 23.2524 13.9484ZM 24.1213 13.7414C 24.4892 13.738 24.7282 13.7931 24.9669 13.9359L 25.4642 13.0683C 25.0964 12.8634 24.6059 12.7448 24.1213 12.7414L 24.1213 13.7414ZM 24.9719 13.9387C 25.2565 14.0964 25.4376 14.2284 25.5776 14.3794L 26.3043 13.6924C 26.1 13.4792 25.7975 13.2554 25.4592 13.0654L 24.9719 13.9387ZM 26.4409 14.0359L 26.4409 10.6593L 25.4409 10.6593L 25.4409 14.0359L 26.4409 14.0359ZM 25.9409 11.1593L 27.0474 11.1593L 27.0474 10.1593L 25.9409 10.1593L 25.9409 11.1593ZM 26.5474 10.6593L 26.5474 18.2814L 27.5474 18.2814L 27.5474 10.6593L 26.5474 10.6593ZM 26.5474 18.2814C 26.5474 18.6366 26.6251 19.0715 26.9896 19.3169L 27.548 18.4873C 27.5819 18.5102 27.5833 18.5313 27.5737 18.5045C 27.5624 18.4728 27.5474 18.404 27.5474 18.2814L 26.5474 18.2814ZM 27.0164 19.3337C 27.2313 19.4543 27.5266 19.5343 27.7728 19.5386L 27.7728 18.5386C 27.6585 18.543 27.6177 18.5319 27.5211 18.4704L 27.0164 19.3337ZM 27.29 18.9088L 27.0564 19.7778L 28.0221 20.0374L 28.2557 19.1684L 27.29 18.9088ZM 27.5392 19.4076C 27.2131 19.4076 27.0055 19.3413 26.8746 19.2547C 26.7524 19.1739 26.6543 19.0477 26.5953 18.8322L 25.6308 19.0961C 25.7439 19.5096 25.9696 19.855 26.3228 20.0887C 26.6673 20.3166 27.0867 20.4076 27.5392 20.4076L 27.5392 19.4076ZM 25.7057 18.6742C 25.5474 18.9007 25.3581 19.0785 25.0716 19.2694L 25.63 20.0989C 25.9828 19.8594 26.3017 19.5573 26.5204 19.2541L 25.7057 18.6742ZM 25.0791 19.2644C 24.8609 19.4056 24.5568 19.4945 24.1336 19.4945L 24.1336 20.4945C 24.694 20.4945 25.2014 20.3764 25.6225 20.1039L 25.0791 19.2644ZM 24.3795 19.5014C 24.7428 19.4978 25.1458 19.399 25.4709 19.2339L 25.0094 18.3468C 24.7935 18.4631 24.6228 18.505 24.3795 18.5014L 24.3795 19.5014ZM 25.4758 19.2313C 25.7959 19.0576 26.1061 18.8045 26.3288 18.5349L 25.5531 17.9038C 25.3987 18.0976 25.2418 18.2252 25.0044 18.3494L 25.4758 19.2313ZM 26.4409 18.2193L 26.4409 15.0166L 25.4409 15.0166L 25.4409 18.2193L 26.4409 18.2193ZM 26.3344 14.708C 26.1445 14.4702 25.8572 14.228 25.5446 14.0405L 25.034 14.9002C 25.2788 15.0437 25.4259 15.1657 25.5475 15.3251L 26.3344 14.708ZM 25.5596 14.0497C 25.2242 13.8407 24.7801 13.7144 24.3672 13.7097L 24.3672 14.7097C 24.6428 14.7049 24.8134 14.7524 25.019 14.891L 25.5596 14.0497ZM 24.3672 13.7097C 24.0159 13.7128 23.6318 13.8014 23.3304 13.9495L 23.7811 14.8422C 23.9715 14.742 24.1284 14.7065 24.3672 14.7097L 24.3672 13.7097ZM 23.3243 13.9527C 23.0414 14.1035 22.7566 14.3391 22.5506 14.5925L 23.3315 15.2172C 23.4697 15.0402 23.5948 14.9365 23.7872 14.8391L 23.3243 13.9527ZM 22.5506 14.5925C 22.3489 14.8487 22.174 15.1896 22.069 15.5297L 23.0262 15.8193C 23.1015 15.5635 23.1889 15.3913 23.3315 15.2172L 22.5506 14.5925ZM 22.0702 15.5259C 21.9697 15.854 21.9136 16.2431 21.9124 16.6179L 22.9124 16.6179C 22.9111 16.3142 22.9452 16.0743 23.025 15.8231L 22.0702 15.5259ZM 21.9124 16.6179C 21.9138 17.0038 21.9759 17.4031 22.0865 17.7346L 23.0334 17.413C 22.9472 17.1652 22.9109 16.9273 22.9124 16.6179L 21.9124 16.6179ZM 22.0865 17.7346C 22.1996 18.0626 22.3762 18.3912 22.5752 18.6434L 23.3561 18.0187C 23.2108 17.8405 23.1169 17.6643 23.0334 17.413L 22.0865 17.7346ZM 22.5887 18.6596C 22.8008 18.8997 23.0828 19.1229 23.3612 19.2708L 23.8241 18.3844C 23.6271 18.284 23.4911 18.1762 23.3426 18.0025L 22.5887 18.6596ZM 23.3795 19.2799C 23.6771 19.4167 24.0466 19.4984 24.3795 19.5014L 24.3795 18.5014C 24.1551 18.5043 24 18.4702 23.8058 18.3753L 23.3795 19.2799ZM 30.0737 17.1378C 30.1576 17.8244 30.4025 18.4113 30.8461 18.8485L 31.5481 18.1363C 31.3032 17.8949 31.1301 17.5383 31.0664 17.0166L 30.0737 17.1378ZM 30.8461 18.8485C 31.2997 19.2956 31.8889 19.5014 32.5618 19.5014L 32.5618 18.5014C 32.1036 18.5014 31.7829 18.3678 31.5481 18.1363L 30.8461 18.8485ZM 32.5618 19.5014C 32.9585 19.5006 33.3519 19.4561 33.68 19.3744L 33.4353 18.4049C 33.1733 18.4722 32.9027 18.5022 32.5618 18.5014L 32.5618 19.5014ZM 33.6927 19.3711C 34.0062 19.2827 34.3258 19.1658 34.6145 19.0337L 34.1974 18.1249C 33.9452 18.2411 33.6992 18.331 33.4226 18.4082L 33.6927 19.3711ZM 33.9233 18.7097L 34.1815 19.6656L 35.1469 19.4048L 34.8887 18.4489L 33.9233 18.7097ZM 34.449 19.0838C 34.1814 19.2124 33.9025 19.3061 33.5588 19.3825L 33.7778 20.3582C 34.1718 20.2691 34.5568 20.1393 34.8794 19.9865L 34.449 19.0838ZM 33.5588 19.3825C 33.2197 19.4595 32.8607 19.4951 32.4266 19.4945L 32.4266 20.4945C 32.9105 20.4939 33.3792 20.4467 33.7778 20.3582L 33.5588 19.3825ZM 32.4266 19.4945C 32.012 19.4965 31.6923 19.4396 31.372 19.3074L 30.9975 20.2347C 31.415 20.4004 31.9231 20.4925 32.4266 20.4945L 32.4266 19.4945ZM 31.3809 19.3111C 31.0579 19.1762 30.8278 19.0166 30.6038 18.7722L 29.8724 19.454C 30.173 19.7724 30.574 20.0513 30.9887 20.231L 31.3809 19.3111ZM 30.614 18.7834C 30.3924 18.535 30.2444 18.269 30.1218 17.8984L 29.1741 18.2175C 29.3302 18.6744 29.5756 19.1119 29.8622 19.4428L 30.614 18.7834ZM 30.1228 17.9012C 29.9953 17.5211 29.9377 17.1199 29.939 16.6179L 28.939 16.6179C 28.9402 17.1919 29.022 17.7506 29.1732 18.2147L 30.1228 17.9012ZM 29.939 16.6179C 29.9375 16.1766 29.9943 15.8098 30.1218 15.4368L 29.1741 15.1177C 29.0229 15.5723 28.9404 16.0993 28.939 16.6179L 29.939 16.6179ZM 30.1218 15.4368C 30.2449 15.065 30.3951 14.7922 30.6185 14.5341L 29.8577 13.8852C 29.5729 14.223 29.3297 14.6619 29.1741 15.1177L 30.1218 15.4368ZM 30.6229 14.5289C 30.8401 14.2625 31.0568 14.0938 31.3605 13.9546L 30.9354 13.0495C 30.5341 13.2413 30.1443 13.5443 29.8533 13.8904L 30.6229 14.5289ZM 31.369 13.9505C 31.666 13.8 31.948 13.7384 32.3282 13.7414L 32.3282 12.7414C 31.8395 12.7443 31.3347 12.8565 30.9268 13.0536L 31.369 13.9505ZM 32.3282 13.7414C 32.7389 13.739 33.0359 13.796 33.3253 13.932L 33.7408 13.0224C 33.3418 12.844 32.8354 12.7437 32.3282 12.7414L 32.3282 13.7414ZM 33.3253 13.932C 33.622 14.0644 33.8206 14.2129 34.0109 14.4444L 34.7765 13.8011C 34.5078 13.4865 34.1327 13.2046 33.7408 13.0224L 33.3253 13.932ZM 34.0109 14.4444C 34.2097 14.677 34.3348 14.9093 34.4332 15.2289L 35.387 14.9283C 35.2558 14.5196 35.0367 14.1147 34.7765 13.8011L 34.0109 14.4444ZM 34.4332 15.2289C 34.5376 15.5551 34.5836 15.8646 34.5822 16.2331L 35.5822 16.2331C 35.5808 15.7906 35.512 15.3304 35.387 14.9283L 34.4332 15.2289ZM 34.5822 16.2331C 34.5823 16.5118 34.571 16.7708 34.5473 17.0324L 35.5433 17.1221C 35.5688 16.8375 35.5821 16.5337 35.5822 16.2331L 34.5822 16.2331ZM 35.0453 16.5772L 30.5701 16.5772L 30.5701 17.5772L 35.0453 17.5772L 35.0453 16.5772ZM 32.3036 13.7097C 31.692 13.7097 31.1594 13.9251 30.7469 14.3636L 31.4752 15.0488C 31.6856 14.8252 31.948 14.7097 32.3036 14.7097L 32.3036 13.7097ZM 30.7423 14.3685C 30.3404 14.8072 30.1321 15.4138 30.0603 16.1205L 31.0552 16.2216C 31.1146 15.6372 31.2752 15.2672 31.4797 15.044L 30.7423 14.3685ZM 30.5578 16.671L 34.0617 16.671L 34.0617 15.671L 30.5578 15.671L 30.5578 16.671ZM 34.5617 16.171C 34.5617 15.4631 34.3858 14.8413 33.9629 14.3805L 33.2262 15.0567C 33.4262 15.2746 33.5617 15.621 33.5617 16.171L 34.5617 16.171ZM 33.9629 14.3805C 33.5386 13.9183 32.9635 13.7097 32.3036 13.7097L 32.3036 14.7097C 32.742 14.7097 33.0276 14.8403 33.2262 15.0567L 33.9629 14.3805Z"/>
<path id="path10_fill" d="M 27.0482 17.1427C 27.0482 20.9299 24.0206 24 20.2862 24C 16.552 24 13.5241 20.9299 13.5241 17.1427C 13.5241 13.356 16.5519 10.2857 20.2862 10.2857C 24.0206 10.2857 27.0482 13.356 27.0482 17.1427ZM 25.3579 17.1427C 25.3579 14.3071 23.0829 11.9999 20.2862 11.9999C 17.4897 11.9999 15.2147 14.3071 15.2147 17.1427C 15.2147 19.9788 17.4897 22.2856 20.2862 22.2856C 23.0829 22.2856 25.3579 19.9788 25.3579 17.1427ZM 6.76212 6.85718L 3.38101 6.85718L 3.38101 10.2857L 6.76212 10.2857L 6.76212 6.85718ZM 3.38101 15.4286L 6.76212 15.4286L 6.76212 11.9999L 3.38101 11.9999L 3.38101 15.4286ZM 8.45254 10.2857L 11.8337 10.2857L 11.8337 6.85718L 8.45254 6.85718L 8.45254 10.2857ZM 8.45254 15.4286L 11.8337 15.4286L 11.8337 11.9999L 8.45254 11.9999L 8.45254 15.4286ZM 1.69059 16.9722L 1.69059 5.14283L 20.2862 5.14283L 20.2862 8.57147L 21.9768 8.57147L 21.9768 1.88518C 21.9768 0.843863 21.1578 0 20.146 0L 19.4409 0L 18.7862 0C 18.1172 0 18.743 0 17.8106 0C 16.8779 0 17.5319 0 16.6678 0L 16.0601 0L 5.91675 0L 5.15644 0C 4.15302 0 5.08559 0 4.15302 0C 3.22024 0 4.15302 0 3.38101 0L 2.53585 0L 1.83168 0C 0.81979 0 0 0.843863 0 1.88518L 0 16.9723C 0 18.0101 0.81979 18.8573 1.83168 18.8573L 11.8337 18.8573L 11.8337 17.1427L 1.83168 17.1427C 1.75508 17.1427 1.69059 17.0624 1.69059 16.9722ZM 16.905 10.2857L 16.905 6.85718L 13.5242 6.85718L 13.5242 10.2857L 16.905 10.2857ZM 22.822 17.1427L 20.2862 17.1427L 20.2862 14.5712C 20.2862 14.0976 19.9081 13.7143 19.4409 13.7143C 18.9736 13.7143 18.5958 14.0976 18.5958 14.5712L 18.5958 18.0001C 18.5958 18.4737 18.9736 18.8572 19.4409 18.8572L 22.822 18.8572C 23.2893 18.8572 23.6673 18.4737 23.6673 18.0001C 23.6673 17.5263 23.2893 17.1427 22.822 17.1427Z"/>
</defs>
</svg>
